<svg width="19" height="19" viewBox="0 0 19 19" fill="none" xmlns="http://www.w3.org/2000/svg">
<path d="M9.13379 1.83594C8.0791 1.83594 7.08301 2.03776 6.14551 2.44141C5.22103 2.84505 4.41048 3.39518 3.71387 4.0918C3.01725 4.78841 2.46712 5.59896 2.06348 6.52344C1.65983 7.46094 1.45801 8.45703 1.45801 9.51172C1.45801 10.5664 1.65983 11.5625 2.06348 12.5C2.46712 13.4245 3.01725 14.235 3.71387 14.9316C4.41048 15.6283 5.22103 16.1784 6.14551 16.582C7.08301 16.9857 8.0791 17.1875 9.13379 17.1875C10.1885 17.1875 11.1846 16.9857 12.1221 16.582C13.0465 16.1784 13.8571 15.6283 14.5537 14.9316C15.2503 14.235 15.8005 13.4245 16.2041 12.5C16.6077 11.5625 16.8096 10.5664 16.8096 9.51172C16.8096 8.45703 16.6077 7.46094 16.2041 6.52344C15.8005 5.59896 15.2503 4.78841 14.5537 4.0918C13.8571 3.39518 13.0465 2.84505 12.1221 2.44141C11.1846 2.03776 10.1885 1.83594 9.13379 1.83594ZM0.129883 9.51172C0.129883 8.27474 0.364258 7.10938 0.833008 6.01562C1.31478 4.92188 1.96257 3.9681 2.77637 3.1543C3.59017 2.34049 4.54395 1.69271 5.6377 1.21094C6.73145 0.742188 7.89681 0.507812 9.13379 0.507812C10.3708 0.507812 11.5361 0.742188 12.6299 1.21094C13.7236 1.69271 14.6774 2.34049 15.4912 3.1543C16.305 3.9681 16.9528 4.92188 17.4346 6.01562C17.9033 7.10938 18.1377 8.27474 18.1377 9.51172C18.1377 10.7487 17.9033 11.9141 17.4346 13.0078C16.9528 14.1016 16.305 15.0553 15.4912 15.8691C14.6774 16.6829 13.7236 17.3307 12.6299 17.8125C11.5361 18.2812 10.3708 18.5156 9.13379 18.5156C7.89681 18.5156 6.73145 18.2812 5.6377 17.8125C4.54395 17.3307 3.59017 16.6829 2.77637 15.8691C1.96257 15.0553 1.31478 14.1016 0.833008 13.0078C0.364258 11.9141 0.129883 10.7487 0.129883 9.51172ZM13.3525 6.54297C13.4827 6.67318 13.5479 6.82943 13.5479 7.01172C13.5479 7.19401 13.4827 7.35026 13.3525 7.48047L8.35254 12.4805C8.22233 12.6107 8.06608 12.6758 7.88379 12.6758C7.7015 12.6758 7.54525 12.6107 7.41504 12.4805L4.91504 9.98047C4.78483 9.85026 4.71973 9.69401 4.71973 9.51172C4.71973 9.32943 4.78483 9.17318 4.91504 9.04297C5.04525 8.91276 5.2015 8.84766 5.38379 8.84766C5.56608 8.84766 5.72233 8.91276 5.85254 9.04297L7.88379 11.0742L12.415 6.54297C12.5452 6.41276 12.7015 6.34766 12.8838 6.34766C13.0661 6.34766 13.2223 6.41276 13.3525 6.54297Z" fill="#C5135D"/>
</svg>
