<svg width="57" height="57" viewBox="0 0 57 57" fill="none" xmlns="http://www.w3.org/2000/svg">
<rect x="0.0952148" y="0.511719" width="56" height="56" rx="28" fill="#FCF1F5"/>
<g clip-path="url(#clip0_176_2026)">
<path d="M16.8169 17.3242C16.3378 17.3242 15.9367 17.3815 15.6138 17.496C15.2909 17.6106 15.0357 17.7617 14.8482 17.9492C14.6607 18.1367 14.5096 18.3919 14.3951 18.7148C14.2805 19.0377 14.2232 19.4388 14.2232 19.9179C14.2232 20.3971 14.2909 20.9335 14.4263 21.5273C14.5617 22.121 14.7753 22.7617 15.0669 23.4492C15.2753 23.9492 15.5201 24.47 15.8013 25.0117C16.0826 25.5533 16.4003 26.1054 16.7544 26.6679C17.2336 26.0429 17.7388 25.4283 18.2701 24.8242C18.8013 24.22 19.3586 23.6263 19.9419 23.0429C20.5253 22.4596 21.119 21.9023 21.7232 21.371C22.3274 20.8398 22.9419 20.3346 23.5669 19.8554C23.0044 19.5013 22.4524 19.1835 21.9107 18.9023C21.369 18.621 20.8482 18.3763 20.3482 18.1679C19.6607 17.8763 19.0201 17.6627 18.4263 17.5273C17.8326 17.3919 17.2961 17.3242 16.8169 17.3242ZM25.4107 18.5117C26.1399 18.0325 26.8638 17.595 27.5826 17.1992C28.3013 16.8033 28.994 16.47 29.6607 16.1992C30.4315 15.8867 31.1815 15.6419 31.9107 15.4648C32.6399 15.2877 33.3378 15.1992 34.0044 15.1992C34.6503 15.1783 35.2753 15.2669 35.8794 15.4648C36.4836 15.6627 37.0149 15.9908 37.4732 16.4492C37.9315 16.9075 38.2596 17.4388 38.4576 18.0429C38.6555 18.6471 38.744 19.2721 38.7232 19.9179C38.7232 20.5846 38.6346 21.2825 38.4576 22.0117C38.2805 22.7408 38.0357 23.4908 37.7232 24.2617C37.4524 24.9283 37.119 25.621 36.7232 26.3398C36.3274 27.0585 35.8899 27.7825 35.4107 28.5117C35.8899 29.2408 36.3274 29.9648 36.7232 30.6835C37.119 31.4023 37.4524 32.095 37.7232 32.7617C38.0357 33.5325 38.2805 34.2825 38.4576 35.0117C38.6346 35.7408 38.7232 36.4388 38.7232 37.1054C38.744 37.7513 38.6555 38.3763 38.4576 38.9804C38.2596 39.5846 37.9315 40.1158 37.4732 40.5742C37.0149 41.0325 36.4836 41.3606 35.8794 41.5585C35.2753 41.7565 34.6503 41.845 34.0044 41.8242C33.3378 41.8242 32.6399 41.7356 31.9107 41.5585C31.1815 41.3815 30.4315 41.1367 29.6607 40.8242C28.994 40.5533 28.3013 40.22 27.5826 39.8242C26.8638 39.4283 26.1399 38.9908 25.4107 38.5117C24.6815 38.9908 23.9576 39.4283 23.2388 39.8242C22.5201 40.22 21.8274 40.5533 21.1607 40.8242C20.3899 41.1367 19.6399 41.3815 18.9107 41.5585C18.1815 41.7356 17.4836 41.8242 16.8169 41.8242C16.1711 41.845 15.5461 41.7565 14.9419 41.5585C14.3378 41.3606 13.8065 41.0325 13.3482 40.5742C12.8899 40.1158 12.5617 39.5846 12.3638 38.9804C12.1659 38.3763 12.0774 37.7513 12.0982 37.1054C12.0982 36.4388 12.1867 35.7408 12.3638 35.0117C12.5409 34.2825 12.7857 33.5325 13.0982 32.7617C13.369 32.095 13.7024 31.4023 14.0982 30.6835C14.494 29.9648 14.9315 29.2408 15.4107 28.5117C14.9315 27.7825 14.494 27.0585 14.0982 26.3398C13.7024 25.621 13.369 24.9283 13.0982 24.2617C12.7857 23.4908 12.5409 22.7408 12.3638 22.0117C12.1867 21.2825 12.0982 20.5846 12.0982 19.9179C12.0774 19.2721 12.1659 18.6471 12.3638 18.0429C12.5617 17.4388 12.8899 16.9075 13.3482 16.4492C13.8065 15.9908 14.3378 15.6627 14.9419 15.4648C15.5461 15.2669 16.1711 15.1783 16.8169 15.1992C17.4836 15.1992 18.1815 15.2877 18.9107 15.4648C19.6399 15.6419 20.3899 15.8867 21.1607 16.1992C21.8274 16.47 22.5201 16.8033 23.2388 17.1992C23.9576 17.595 24.6815 18.0325 25.4107 18.5117ZM25.4107 21.1367C24.744 21.6158 24.0826 22.1419 23.4263 22.7148C22.7701 23.2877 22.1086 23.8971 21.4419 24.5429C20.7961 25.2096 20.1867 25.871 19.6138 26.5273C19.0409 27.1835 18.5149 27.845 18.0357 28.5117C18.5149 29.1783 19.0409 29.8398 19.6138 30.496C20.1867 31.1523 20.7961 31.8138 21.4419 32.4804C22.1086 33.1263 22.7701 33.7356 23.4263 34.3085C24.0826 34.8815 24.744 35.4075 25.4107 35.8867C26.0774 35.4075 26.7388 34.8815 27.3951 34.3085C28.0513 33.7356 28.7128 33.1263 29.3794 32.4804C30.0253 31.8138 30.6346 31.1523 31.2076 30.496C31.7805 29.8398 32.3065 29.1783 32.7857 28.5117C32.3065 27.845 31.7805 27.1835 31.2076 26.5273C30.6346 25.871 30.0253 25.2096 29.3794 24.5429C28.7128 23.8971 28.0513 23.2877 27.3951 22.7148C26.7388 22.1419 26.0774 21.6158 25.4107 21.1367ZM34.0669 26.6679C34.4211 26.1054 34.7388 25.5533 35.0201 25.0117C35.3013 24.47 35.5461 23.9492 35.7544 23.4492C36.0461 22.7617 36.2596 22.121 36.3951 21.5273C36.5305 20.9335 36.5982 20.3971 36.5982 19.9179C36.5982 19.4388 36.5409 19.0377 36.4263 18.7148C36.3117 18.3919 36.1607 18.1367 35.9732 17.9492C35.7857 17.7617 35.5305 17.6106 35.2076 17.496C34.8846 17.3815 34.4836 17.3242 34.0044 17.3242C33.5253 17.3242 32.9888 17.3919 32.3951 17.5273C31.8013 17.6627 31.1607 17.8763 30.4732 18.1679C29.9732 18.3763 29.4524 18.621 28.9107 18.9023C28.369 19.1835 27.8169 19.5013 27.2544 19.8554C27.8794 20.3346 28.494 20.8398 29.0982 21.371C29.7024 21.9023 30.2961 22.4596 30.8794 23.0429C31.4628 23.6263 32.0201 24.22 32.5513 24.8242C33.0826 25.4283 33.5878 26.0429 34.0669 26.6679ZM34.0669 30.3554C33.5878 30.9804 33.0826 31.595 32.5513 32.1992C32.0201 32.8033 31.4628 33.3971 30.8794 33.9804C30.2961 34.5638 29.7024 35.121 29.0982 35.6523C28.494 36.1835 27.8794 36.6888 27.2544 37.1679C27.8169 37.5221 28.369 37.8398 28.9107 38.121C29.4524 38.4023 29.9732 38.6471 30.4732 38.8554C31.1607 39.1471 31.8013 39.3606 32.3951 39.496C32.9888 39.6315 33.5253 39.6992 34.0044 39.6992C34.4836 39.6992 34.8846 39.6419 35.2076 39.5273C35.5305 39.4127 35.7857 39.2617 35.9732 39.0742C36.1607 38.8867 36.3117 38.6315 36.4263 38.3085C36.5409 37.9856 36.5982 37.5846 36.5982 37.1054C36.5982 36.6263 36.5305 36.0898 36.3951 35.496C36.2596 34.9023 36.0461 34.2617 35.7544 33.5742C35.5461 33.0742 35.3013 32.5533 35.0201 32.0117C34.7388 31.47 34.4211 30.9179 34.0669 30.3554ZM23.5669 37.1679C22.9419 36.6888 22.3274 36.1835 21.7232 35.6523C21.119 35.121 20.5253 34.5638 19.9419 33.9804C19.3586 33.3971 18.8013 32.8033 18.2701 32.1992C17.7388 31.595 17.2336 30.9804 16.7544 30.3554C16.4003 30.9179 16.0826 31.47 15.8013 32.0117C15.5201 32.5533 15.2753 33.0742 15.0669 33.5742C14.7753 34.2617 14.5617 34.9023 14.4263 35.496C14.2909 36.0898 14.2232 36.6263 14.2232 37.1054C14.2232 37.5846 14.2805 37.9856 14.3951 38.3085C14.5096 38.6315 14.6607 38.8867 14.8482 39.0742C15.0357 39.2617 15.2909 39.4127 15.6138 39.5273C15.9367 39.6419 16.3378 39.6992 16.8169 39.6992C17.2961 39.6992 17.8326 39.6315 18.4263 39.496C19.0201 39.3606 19.6607 39.1471 20.3482 38.8554C20.8482 38.6471 21.369 38.4023 21.9107 38.121C22.4524 37.8398 23.0044 37.5221 23.5669 37.1679ZM23.6919 28.5117C23.6919 28.9908 23.8586 29.3971 24.1919 29.7304C24.5253 30.0638 24.9315 30.2304 25.4107 30.2304C25.8899 30.2304 26.2961 30.0638 26.6294 29.7304C26.9628 29.3971 27.1294 28.9908 27.1294 28.5117C27.1294 28.0325 26.9628 27.6263 26.6294 27.2929C26.2961 26.9596 25.8899 26.7929 25.4107 26.7929C24.9315 26.7929 24.5253 26.9596 24.1919 27.2929C23.8586 27.6263 23.6919 28.0325 23.6919 28.5117Z" fill="#6A11B0"/>
</g>
<defs>
<clipPath id="clip0_176_2026">
<rect width="32" height="32" fill="white" transform="matrix(1 0 0 -1 12.0952 44.5117)"/>
</clipPath>
</defs>
</svg>
