<svg width="57" height="57" viewBox="0 0 57 57" fill="none" xmlns="http://www.w3.org/2000/svg">
<rect x="0.964844" y="0.511719" width="56" height="56" rx="28" fill="#FCF1F5"/>
<g clip-path="url(#clip0_176_2038)">
<path d="M15.4961 22.543C15.4753 22.5013 15.444 22.4648 15.4023 22.4336C15.3607 22.4023 15.319 22.3763 15.2773 22.3555L15.2461 22.3242C15.1419 22.2409 15.0273 22.1628 14.9023 22.0898C14.7773 22.0169 14.6419 21.9596 14.4961 21.918L13.2773 21.5117C13.2357 21.5117 13.194 21.4961 13.1523 21.4648C13.1107 21.4336 13.0794 21.3971 13.0586 21.3555C13.0169 21.3138 12.9909 21.2669 12.9805 21.2148C12.9701 21.1628 12.9648 21.1159 12.9648 21.0742C12.9648 21.0117 12.9701 20.9596 12.9805 20.918C12.9909 20.8763 13.0169 20.8346 13.0586 20.793C13.0794 20.7513 13.1107 20.7148 13.1523 20.6836C13.194 20.6523 13.2357 20.6263 13.2773 20.6055L14.4961 20.1992C14.6628 20.1576 14.819 20.0951 14.9648 20.0117C15.1107 19.9284 15.2357 19.8242 15.3398 19.6992C15.3607 19.6992 15.3763 19.694 15.3867 19.6836C15.3971 19.6732 15.4023 19.668 15.4023 19.668C15.4232 19.6471 15.4388 19.6315 15.4492 19.6211C15.4596 19.6107 15.4753 19.6055 15.4961 19.6055C15.6211 19.4596 15.7357 19.3086 15.8398 19.1523C15.944 18.9961 16.0169 18.8242 16.0586 18.6367L16.0898 18.6055L16.4961 17.3867C16.4961 17.3451 16.5117 17.3034 16.543 17.2617C16.5742 17.2201 16.6107 17.1888 16.6523 17.168C16.694 17.1471 16.7409 17.1263 16.793 17.1055C16.8451 17.0846 16.8919 17.0742 16.9336 17.0742C16.9961 17.0742 17.0482 17.0846 17.0898 17.1055C17.1315 17.1263 17.1732 17.1471 17.2148 17.168C17.2357 17.1888 17.2617 17.2148 17.293 17.2461C17.3242 17.2773 17.3398 17.3138 17.3398 17.3555C17.3607 17.3555 17.3711 17.3555 17.3711 17.3555C17.3711 17.3763 17.3763 17.3867 17.3867 17.3867C17.3971 17.3867 17.4023 17.3867 17.4023 17.3867L17.7773 18.6367C17.819 18.6784 17.8503 18.7305 17.8711 18.793C17.8919 18.8555 17.9232 18.918 17.9648 18.9805C18.0065 19.0846 18.069 19.194 18.1523 19.3086C18.2357 19.4232 18.319 19.5221 18.4023 19.6055C18.5482 19.7513 18.7044 19.8763 18.8711 19.9805C19.0378 20.0846 19.2148 20.168 19.4023 20.2305L20.6211 20.6055L20.6523 20.6367C20.694 20.6576 20.7357 20.6784 20.7773 20.6992C20.819 20.7201 20.8503 20.7513 20.8711 20.793C20.8919 20.8346 20.9128 20.8815 20.9336 20.9336C20.9544 20.9857 20.9648 21.0326 20.9648 21.0742C20.9648 21.1367 20.9544 21.1888 20.9336 21.2305C20.9128 21.2721 20.8919 21.3138 20.8711 21.3555C20.8503 21.3971 20.819 21.4336 20.7773 21.4648C20.7357 21.4961 20.694 21.5221 20.6523 21.543L19.4336 21.9492C19.2461 22.0117 19.069 22.0898 18.9023 22.1836C18.7357 22.2773 18.5794 22.3971 18.4336 22.543C18.2878 22.6888 18.1628 22.8451 18.0586 23.0117C17.9544 23.1784 17.8711 23.3555 17.8086 23.543L17.4336 24.7617L17.4023 24.793C17.4023 24.8138 17.3919 24.8346 17.3711 24.8555C17.3503 24.8763 17.3294 24.8971 17.3086 24.918C17.3086 24.9388 17.3034 24.9544 17.293 24.9648C17.2826 24.9753 17.2669 24.9805 17.2461 24.9805C17.2044 25.0221 17.1628 25.0482 17.1211 25.0586C17.0794 25.069 17.0273 25.0742 16.9648 25.0742C16.9232 25.0742 16.8763 25.069 16.8242 25.0586C16.7721 25.0482 16.7253 25.0221 16.6836 24.9805C16.6419 24.9596 16.6055 24.9284 16.5742 24.8867C16.543 24.8451 16.5273 24.8034 16.5273 24.7617L16.1211 23.543C16.0794 23.3971 16.0221 23.2617 15.9492 23.1367C15.8763 23.0117 15.7982 22.8971 15.7148 22.793C15.694 22.7513 15.6628 22.7096 15.6211 22.668C15.5794 22.6263 15.5378 22.5846 15.4961 22.543ZM18.6836 17.0742H39.2461C39.4753 17.0742 39.6992 17.0951 39.918 17.1367C40.1367 17.1784 40.3503 17.2513 40.5586 17.3555C40.7669 17.4388 40.9648 17.543 41.1523 17.668C41.3398 17.793 41.5169 17.9284 41.6836 18.0742C41.8294 18.2409 41.9648 18.418 42.0898 18.6055C42.2148 18.793 42.319 18.9909 42.4023 19.1992C42.5065 19.4076 42.5794 19.6211 42.6211 19.8398C42.6628 20.0586 42.6836 20.2826 42.6836 20.5117V36.5117C42.6836 36.9701 42.5951 37.4076 42.418 37.8242C42.2409 38.2409 41.9961 38.6055 41.6836 38.918C41.3503 39.2513 40.9753 39.5065 40.5586 39.6836C40.1419 39.8607 39.7044 39.9492 39.2461 39.9492H18.6836C18.2461 39.9492 17.8138 39.8607 17.3867 39.6836C16.9596 39.5065 16.5898 39.2513 16.2773 38.918C15.944 38.6055 15.694 38.2409 15.5273 37.8242C15.3607 37.4076 15.2773 36.9701 15.2773 36.5117V24.6055L15.4336 25.1055C15.4961 25.2721 15.5794 25.4284 15.6836 25.5742C15.7878 25.7201 15.9023 25.8346 16.0273 25.918C16.1732 26.0221 16.3242 26.1003 16.4805 26.1523C16.6367 26.2044 16.7982 26.2305 16.9648 26.2305V36.5117C16.9648 36.7409 17.0117 36.9596 17.1055 37.168C17.1992 37.3763 17.319 37.5638 17.4648 37.7305C17.6315 37.8763 17.819 37.9961 18.0273 38.0898C18.2357 38.1836 18.4544 38.2305 18.6836 38.2305H22.4023V33.6367C22.4023 33.3451 22.4596 33.0586 22.5742 32.7773C22.6888 32.4961 22.8503 32.2513 23.0586 32.043C23.2878 31.8138 23.5378 31.6419 23.8086 31.5273C24.0794 31.4128 24.3711 31.3555 24.6836 31.3555H33.2461C33.5586 31.3555 33.8503 31.4128 34.1211 31.5273C34.3919 31.6419 34.6419 31.8138 34.8711 32.043C35.0794 32.2513 35.2409 32.4961 35.3555 32.7773C35.4701 33.0586 35.5273 33.3451 35.5273 33.6367V38.2305H39.2461C39.4753 38.2305 39.694 38.1836 39.9023 38.0898C40.1107 37.9961 40.2982 37.8763 40.4648 37.7305C40.6107 37.5638 40.7305 37.3763 40.8242 37.168C40.918 36.9596 40.9648 36.7409 40.9648 36.5117V20.5117C40.9648 20.2826 40.918 20.0638 40.8242 19.8555C40.7305 19.6471 40.6107 19.4596 40.4648 19.293C40.2982 19.1263 40.1107 19.0013 39.9023 18.918C39.694 18.8346 39.4753 18.793 39.2461 18.793H19.2148C19.1315 18.7305 19.0638 18.6523 19.0117 18.5586C18.9596 18.4648 18.9128 18.3659 18.8711 18.2617L18.4961 17.1055C18.5169 17.1055 18.5326 17.1055 18.543 17.1055C18.5534 17.1055 18.569 17.1055 18.5898 17.1055C18.6107 17.0846 18.6263 17.0742 18.6367 17.0742C18.6471 17.0742 18.6628 17.0742 18.6836 17.0742ZM24.1211 38.2305H33.8086V33.6367C33.8086 33.5742 33.7982 33.5065 33.7773 33.4336C33.7565 33.3607 33.7148 33.293 33.6523 33.2305C33.5898 33.1888 33.5273 33.1523 33.4648 33.1211C33.4023 33.0898 33.3294 33.0742 33.2461 33.0742H24.6836C24.6003 33.0742 24.5273 33.0898 24.4648 33.1211C24.4023 33.1523 24.3398 33.1888 24.2773 33.2305C24.2148 33.293 24.1732 33.3607 24.1523 33.4336C24.1315 33.5065 24.1211 33.5742 24.1211 33.6367V38.2305ZM32.9648 25.668C32.9648 25.1263 32.8607 24.6107 32.6523 24.1211C32.444 23.6315 32.1523 23.1992 31.7773 22.8242C31.4023 22.4492 30.9701 22.1628 30.4805 21.9648C29.9909 21.7669 29.4857 21.668 28.9648 21.668C28.444 21.668 27.9388 21.7669 27.4492 21.9648C26.9596 22.1628 26.5273 22.4492 26.1523 22.8242C25.7773 23.1992 25.4857 23.6315 25.2773 24.1211C25.069 24.6107 24.9648 25.1263 24.9648 25.668C24.9648 26.1888 25.069 26.694 25.2773 27.1836C25.4857 27.6732 25.7773 28.1055 26.1523 28.4805C26.5273 28.8555 26.9596 29.1419 27.4492 29.3398C27.9388 29.5378 28.444 29.6367 28.9648 29.6367C29.4857 29.6367 29.9909 29.5378 30.4805 29.3398C30.9701 29.1419 31.4023 28.8555 31.7773 28.4805C32.1523 28.1055 32.444 27.6732 32.6523 27.1836C32.8607 26.694 32.9648 26.1888 32.9648 25.668ZM26.6836 25.668C26.6836 25.3555 26.7409 25.0586 26.8555 24.7773C26.9701 24.4961 27.1315 24.2513 27.3398 24.043C27.569 23.8346 27.819 23.668 28.0898 23.543C28.3607 23.418 28.6523 23.3555 28.9648 23.3555C29.2773 23.3555 29.569 23.418 29.8398 23.543C30.1107 23.668 30.3607 23.8346 30.5898 24.043C30.7982 24.2513 30.9596 24.4961 31.0742 24.7773C31.1888 25.0586 31.2461 25.3555 31.2461 25.668C31.2461 25.9596 31.1888 26.2461 31.0742 26.5273C30.9596 26.8086 30.7982 27.0534 30.5898 27.2617C30.3607 27.4701 30.1107 27.6367 29.8398 27.7617C29.569 27.8867 29.2773 27.9492 28.9648 27.9492C28.6523 27.9492 28.3607 27.8867 28.0898 27.7617C27.819 27.6367 27.569 27.4701 27.3398 27.2617C27.1315 27.0534 26.9701 26.8086 26.8555 26.5273C26.7409 26.2461 26.6836 25.9596 26.6836 25.668ZM19.4336 26.543L20.1523 26.293C20.2565 26.2721 20.3555 26.2305 20.4492 26.168C20.543 26.1055 20.6211 26.043 20.6836 25.9805C20.7253 25.9388 20.7617 25.8919 20.793 25.8398C20.8242 25.7878 20.8607 25.7409 20.9023 25.6992C20.9232 25.6576 20.944 25.6107 20.9648 25.5586C20.9857 25.5065 21.0065 25.4596 21.0273 25.418L21.2773 24.6992C21.2773 24.6784 21.2878 24.6576 21.3086 24.6367C21.3294 24.6159 21.3503 24.5951 21.3711 24.5742C21.3711 24.5742 21.3763 24.569 21.3867 24.5586C21.3971 24.5482 21.4128 24.543 21.4336 24.543C21.4336 24.543 21.444 24.5378 21.4648 24.5273C21.4857 24.5169 21.5065 24.5117 21.5273 24.5117C21.5482 24.5117 21.5742 24.5169 21.6055 24.5273C21.6367 24.5378 21.6628 24.5534 21.6836 24.5742C21.6836 24.5742 21.6888 24.5794 21.6992 24.5898C21.7096 24.6003 21.7148 24.6055 21.7148 24.6055C21.7357 24.6263 21.7513 24.6419 21.7617 24.6523C21.7721 24.6628 21.7773 24.6784 21.7773 24.6992L22.0273 25.418C22.0482 25.5221 22.0898 25.6211 22.1523 25.7148C22.2148 25.8086 22.2773 25.8971 22.3398 25.9805C22.4232 26.043 22.5117 26.1055 22.6055 26.168C22.6992 26.2305 22.8086 26.2826 22.9336 26.3242L23.6211 26.543C23.6419 26.543 23.6576 26.5482 23.668 26.5586C23.6784 26.569 23.6836 26.5742 23.6836 26.5742C23.7044 26.5742 23.7201 26.5846 23.7305 26.6055C23.7409 26.6263 23.7565 26.6367 23.7773 26.6367C23.7773 26.6784 23.7826 26.7096 23.793 26.7305C23.8034 26.7513 23.8086 26.7721 23.8086 26.793C23.8086 26.8346 23.8034 26.8659 23.793 26.8867C23.7826 26.9076 23.7773 26.9388 23.7773 26.9805C23.7565 27.0013 23.7357 27.0169 23.7148 27.0273C23.694 27.0378 23.6628 27.0534 23.6211 27.0742L22.9336 27.293C22.8294 27.3346 22.7305 27.3815 22.6367 27.4336C22.543 27.4857 22.4544 27.5534 22.3711 27.6367C22.2878 27.7201 22.2201 27.8086 22.168 27.9023C22.1159 27.9961 22.069 28.0951 22.0273 28.1992L21.8086 28.918C21.7878 28.9388 21.7721 28.9596 21.7617 28.9805C21.7513 29.0013 21.7253 29.0221 21.6836 29.043C21.6628 29.0638 21.6419 29.0742 21.6211 29.0742C21.6003 29.0742 21.569 29.0742 21.5273 29.0742C21.5065 29.0742 21.4805 29.0742 21.4492 29.0742C21.418 29.0742 21.3919 29.0638 21.3711 29.043C21.3503 29.0221 21.3294 29.0013 21.3086 28.9805C21.2878 28.9596 21.2773 28.9388 21.2773 28.918L21.0586 28.1992C21.0169 28.0951 20.9648 27.9961 20.9023 27.9023C20.8398 27.8086 20.7773 27.7201 20.7148 27.6367C20.6315 27.5534 20.543 27.4805 20.4492 27.418C20.3555 27.3555 20.2565 27.3138 20.1523 27.293L19.4336 27.043C19.4128 27.043 19.3919 27.0326 19.3711 27.0117C19.3503 26.9909 19.3294 26.9701 19.3086 26.9492C19.2878 26.9284 19.2721 26.9023 19.2617 26.8711C19.2513 26.8398 19.2461 26.8138 19.2461 26.793C19.2461 26.7721 19.2513 26.7461 19.2617 26.7148C19.2721 26.6836 19.2878 26.6576 19.3086 26.6367C19.3294 26.6159 19.3503 26.5951 19.3711 26.5742C19.3919 26.5534 19.4128 26.543 19.4336 26.543Z" fill="#6A11B0"/>
</g>
<defs>
<clipPath id="clip0_176_2038">
<rect width="32" height="32" fill="white" transform="matrix(1 0 0 -1 12.9648 44.5117)"/>
</clipPath>
</defs>
</svg>
