<svg width="57" height="57" viewBox="0 0 57 57" fill="none" xmlns="http://www.w3.org/2000/svg">
<rect x="0.0351562" y="0.511719" width="56" height="56" rx="28" fill="#FCF1F5"/>
<g clip-path="url(#clip0_176_2032)">
<path d="M25.3477 17.5117C25.3477 16.8659 25.1237 16.3138 24.6758 15.8555C24.2279 15.3971 23.681 15.168 23.0352 15.168H14.3477C13.7018 15.168 13.1549 15.3971 12.707 15.8555C12.2591 16.3138 12.0352 16.8659 12.0352 17.5117V20.168V20.1992V24.168V24.1992V28.5117V32.8242C12.0352 32.8242 12.0352 32.8294 12.0352 32.8398C12.0352 32.8503 12.0352 32.8555 12.0352 32.8555V36.8242V36.8555V39.5117C12.0352 40.1576 12.2591 40.7096 12.707 41.168C13.1549 41.6263 13.7018 41.8555 14.3477 41.8555H23.0352C23.681 41.8555 24.2279 41.6263 24.6758 41.168C25.1237 40.7096 25.3477 40.1576 25.3477 39.5117V17.5117ZM14.0352 33.8555H19.0352C19.306 33.8555 19.5404 33.7565 19.7383 33.5586C19.9362 33.3607 20.0352 33.1263 20.0352 32.8555C20.0352 32.5638 19.9362 32.3242 19.7383 32.1367C19.5404 31.9492 19.306 31.8555 19.0352 31.8555H14.0352V29.5117H17.6914C17.9622 29.5117 18.1966 29.4128 18.3945 29.2148C18.5924 29.0169 18.6914 28.7826 18.6914 28.5117C18.6914 28.2409 18.5924 28.0065 18.3945 27.8086C18.1966 27.6107 17.9622 27.5117 17.6914 27.5117H14.0352V25.168H19.0352C19.306 25.168 19.5404 25.0742 19.7383 24.8867C19.9362 24.6992 20.0352 24.4596 20.0352 24.168C20.0352 23.8971 19.9362 23.6628 19.7383 23.4648C19.5404 23.2669 19.306 23.168 19.0352 23.168H14.0352V21.168H17.6914C17.9622 21.168 18.1966 21.0742 18.3945 20.8867C18.5924 20.6992 18.6914 20.4596 18.6914 20.168C18.6914 19.8971 18.5924 19.6628 18.3945 19.4648C18.1966 19.2669 17.9622 19.168 17.6914 19.168H14.0352V17.5117C14.0352 17.4284 14.0664 17.3503 14.1289 17.2773C14.1914 17.2044 14.2643 17.168 14.3477 17.168H23.0352C23.1185 17.168 23.1914 17.2044 23.2539 17.2773C23.3164 17.3503 23.3477 17.4284 23.3477 17.5117V39.5117C23.3477 39.5951 23.3164 39.6732 23.2539 39.7461C23.1914 39.819 23.1185 39.8555 23.0352 39.8555H14.3477C14.2643 39.8555 14.1914 39.819 14.1289 39.7461C14.0664 39.6732 14.0352 39.5951 14.0352 39.5117V37.8555H17.6914C17.9622 37.8555 18.1966 37.7565 18.3945 37.5586C18.5924 37.3607 18.6914 37.1263 18.6914 36.8555C18.6914 36.5638 18.5924 36.3242 18.3945 36.1367C18.1966 35.9492 17.9622 35.8555 17.6914 35.8555H14.0352V33.8555Z" fill="#6A11B0"/>
</g>
<defs>
<clipPath id="clip0_176_2032">
<rect width="32" height="32" fill="white" transform="matrix(1 0 0 -1 12.0352 44.5117)"/>
</clipPath>
</defs>
</svg>
