<svg width="57" height="57" viewBox="0 0 57 57" fill="none" xmlns="http://www.w3.org/2000/svg">
<rect x="0.0351562" y="0.511719" width="56" height="56" rx="28" fill="#FCF1F5"/>
<g clip-path="url(#clip0_176_2014)">
<path d="M19.4727 15.4492H33.4102C33.9518 15.4492 34.4466 15.4492 34.8945 15.4492C35.3424 15.4492 35.7435 15.4701 36.0977 15.5117C36.4518 15.5326 36.7956 15.5794 37.1289 15.6523C37.4622 15.7253 37.7747 15.8451 38.0664 16.0117C38.5456 16.2409 38.9727 16.5482 39.3477 16.9336C39.7227 17.319 40.0352 17.7409 40.2852 18.1992C40.4518 18.5117 40.5716 18.8294 40.6445 19.1523C40.7174 19.4753 40.7643 19.8242 40.7852 20.1992C40.806 20.5534 40.8216 20.9492 40.832 21.3867C40.8424 21.8242 40.8477 22.3138 40.8477 22.8555V34.168C40.8477 34.7096 40.8424 35.1992 40.832 35.6367C40.8216 36.0742 40.806 36.4701 40.7852 36.8242C40.7643 37.1992 40.7174 37.5482 40.6445 37.8711C40.5716 38.194 40.4518 38.5117 40.2852 38.8242C40.0352 39.2826 39.7227 39.7044 39.3477 40.0898C38.9727 40.4753 38.5456 40.7826 38.0664 41.0117C37.7747 41.1784 37.4622 41.2982 37.1289 41.3711C36.7956 41.444 36.4518 41.4909 36.0977 41.5117C35.7435 41.5534 35.3424 41.5742 34.8945 41.5742C34.4466 41.5742 33.9518 41.5742 33.4102 41.5742H19.4727C18.931 41.5742 18.4362 41.5742 17.9883 41.5742C17.5404 41.5742 17.1393 41.5534 16.7852 41.5117C16.431 41.4909 16.0872 41.444 15.7539 41.3711C15.4206 41.2982 15.1081 41.1784 14.8164 41.0117C14.3372 40.7826 13.9102 40.4753 13.5352 40.0898C13.1602 39.7044 12.8477 39.2826 12.5977 38.8242C12.431 38.5117 12.3112 38.194 12.2383 37.8711C12.1654 37.5482 12.1185 37.1992 12.0977 36.8242C12.0768 36.4701 12.0612 36.0742 12.0508 35.6367C12.0404 35.1992 12.0352 34.7096 12.0352 34.168V24.5117V22.8555C12.0352 22.3138 12.0404 21.8242 12.0508 21.3867C12.0612 20.9492 12.0768 20.5534 12.0977 20.1992C12.1185 19.8242 12.1654 19.4753 12.2383 19.1523C12.3112 18.8294 12.431 18.5117 12.5977 18.1992C12.8477 17.7409 13.1602 17.319 13.5352 16.9336C13.9102 16.5482 14.3372 16.2409 14.8164 16.0117C15.1081 15.8451 15.4206 15.7253 15.7539 15.6523C16.0872 15.5794 16.431 15.5326 16.7852 15.5117C17.1393 15.4701 17.5404 15.4492 17.9883 15.4492C18.4362 15.4492 18.931 15.4492 19.4727 15.4492ZM14.1602 25.5742V34.1055C14.1602 34.6888 14.1654 35.1836 14.1758 35.5898C14.1862 35.9961 14.2018 36.3451 14.2227 36.6367C14.2435 36.9492 14.2799 37.1992 14.332 37.3867C14.3841 37.5742 14.4414 37.7305 14.5039 37.8555C14.6289 38.1263 14.8008 38.3711 15.0195 38.5898C15.2383 38.8086 15.4935 38.9909 15.7852 39.1367C15.9102 39.1992 16.0612 39.2513 16.2383 39.293C16.4154 39.3346 16.6602 39.3659 16.9727 39.3867C17.2852 39.4076 17.6445 39.4232 18.0508 39.4336C18.457 39.444 18.9414 39.4492 19.5039 39.4492H33.3789C33.9414 39.4492 34.4258 39.444 34.832 39.4336C35.2383 39.4232 35.5977 39.4076 35.9102 39.3867C36.2227 39.3659 36.4674 39.3346 36.6445 39.293C36.8216 39.2513 36.9727 39.1992 37.0977 39.1367C37.3893 38.9909 37.6445 38.8086 37.8633 38.5898C38.082 38.3711 38.2539 38.1263 38.3789 37.8555C38.4414 37.7305 38.4987 37.5742 38.5508 37.3867C38.6029 37.1992 38.6393 36.9492 38.6602 36.6367C38.681 36.3451 38.6966 35.9961 38.707 35.5898C38.7174 35.1836 38.7227 34.6888 38.7227 34.1055V25.5742H14.1602ZM38.7227 23.4492V22.918C38.7227 22.3346 38.7174 21.8398 38.707 21.4336C38.6966 21.0273 38.681 20.6784 38.6602 20.3867C38.6393 20.0742 38.6029 19.8242 38.5508 19.6367C38.4987 19.4492 38.4414 19.293 38.3789 19.168C38.2539 18.8971 38.082 18.6523 37.8633 18.4336C37.6445 18.2148 37.3893 18.0326 37.0977 17.8867C36.9727 17.8242 36.8216 17.7721 36.6445 17.7305C36.4674 17.6888 36.2227 17.6576 35.9102 17.6367C35.5977 17.6159 35.2383 17.6003 34.832 17.5898C34.4258 17.5794 33.9414 17.5742 33.3789 17.5742H19.5039C18.9414 17.5742 18.457 17.5794 18.0508 17.5898C17.6445 17.6003 17.2852 17.6159 16.9727 17.6367C16.6602 17.6576 16.4154 17.6888 16.2383 17.7305C16.0612 17.7721 15.9102 17.8242 15.7852 17.8867C15.4935 18.0326 15.2383 18.2148 15.0195 18.4336C14.8008 18.6523 14.6289 18.8971 14.5039 19.168C14.4414 19.293 14.3841 19.4492 14.332 19.6367C14.2799 19.8242 14.2435 20.0742 14.2227 20.3867C14.2018 20.6784 14.1862 21.0273 14.1758 21.4336C14.1654 21.8398 14.1602 22.3346 14.1602 22.918V23.4492H38.7227ZM24.5352 28.418C24.3268 28.2096 24.0768 28.1055 23.7852 28.1055C23.4935 28.1055 23.2435 28.2096 23.0352 28.418L19.6914 31.7617C19.4831 31.9701 19.3789 32.2201 19.3789 32.5117C19.3789 32.8034 19.4831 33.0534 19.6914 33.2617L23.0352 36.6055C23.2435 36.8138 23.4935 36.918 23.7852 36.918C24.0768 36.918 24.3268 36.8138 24.5352 36.6055C24.7435 36.3971 24.8477 36.1471 24.8477 35.8555C24.8477 35.5638 24.7435 35.3138 24.5352 35.1055L21.9414 32.5117L24.5352 29.918C24.7435 29.7096 24.8477 29.4596 24.8477 29.168C24.8477 28.8763 24.7435 28.6263 24.5352 28.418ZM28.3477 28.418C28.1393 28.6263 28.0352 28.8763 28.0352 29.168C28.0352 29.4596 28.1393 29.7096 28.3477 29.918L30.9414 32.5117L28.3477 35.1055C28.1393 35.3138 28.0352 35.5638 28.0352 35.8555C28.0352 36.1471 28.1393 36.3971 28.3477 36.6055C28.556 36.8138 28.806 36.918 29.0977 36.918C29.3893 36.918 29.6393 36.8138 29.8477 36.6055L33.1914 33.2617C33.3997 33.0534 33.5039 32.8034 33.5039 32.5117C33.5039 32.2201 33.3997 31.9701 33.1914 31.7617L29.8477 28.418C29.6393 28.2096 29.3893 28.1055 29.0977 28.1055C28.806 28.1055 28.556 28.2096 28.3477 28.418Z" fill="#6A11B0"/>
</g>
<defs>
<clipPath id="clip0_176_2014">
<rect width="32" height="32" fill="white" transform="matrix(1 0 0 -1 12.0352 44.5117)"/>
</clipPath>
</defs>
</svg>
