<svg width="57" height="57" viewBox="0 0 57 57" fill="none" xmlns="http://www.w3.org/2000/svg">
<rect x="0.0952148" y="0.511719" width="56" height="56" rx="28" fill="#FCF1F5"/>
<g clip-path="url(#clip0_176_2008)">
<path d="M24.9077 38.1055C24.5327 38.6055 24.0692 38.9961 23.5171 39.2773C22.965 39.5586 22.366 39.6992 21.7202 39.6992H14.5015C13.8348 39.6992 13.2671 39.4648 12.7983 38.9961C12.3296 38.5273 12.0952 37.9701 12.0952 37.3242V19.6992C12.0952 19.0534 12.3296 18.4961 12.7983 18.0273C13.2671 17.5586 13.8348 17.3242 14.5015 17.3242H21.7202C22.366 17.3242 22.965 17.4648 23.5171 17.7461C24.0692 18.0273 24.5327 18.418 24.9077 18.918C25.2827 18.418 25.7463 18.0273 26.2983 17.7461C26.8504 17.4648 27.4494 17.3242 28.0952 17.3242H35.314C35.9806 17.3242 36.5483 17.5586 37.0171 18.0273C37.4858 18.4961 37.7202 19.0534 37.7202 19.6992V37.3242C37.7202 37.9701 37.4858 38.5273 37.0171 38.9961C36.5483 39.4648 35.9806 39.6992 35.314 39.6992H28.0952C27.4494 39.6992 26.8504 39.5586 26.2983 39.2773C25.7463 38.9961 25.2827 38.6055 24.9077 38.1055ZM13.7202 19.6992V37.3242C13.7202 37.5326 13.7983 37.7148 13.9546 37.8711C14.1108 38.0273 14.2931 38.1055 14.5015 38.1055H21.7202C22.366 38.1055 22.9233 37.8711 23.3921 37.4023C23.8608 36.9336 24.0952 36.3659 24.0952 35.6992V21.3242C24.0952 20.6576 23.8608 20.0898 23.3921 19.6211C22.9233 19.1523 22.366 18.918 21.7202 18.918H14.5015C14.2931 18.918 14.1108 18.9961 13.9546 19.1523C13.7983 19.3086 13.7202 19.4909 13.7202 19.6992ZM25.7202 35.6992C25.7202 36.3659 25.9546 36.9336 26.4233 37.4023C26.8921 37.8711 27.4494 38.1055 28.0952 38.1055H35.314C35.5223 38.1055 35.7046 38.0273 35.8608 37.8711C36.0171 37.7148 36.0952 37.5326 36.0952 37.3242V19.6992C36.0952 19.4909 36.0171 19.3086 35.8608 19.1523C35.7046 18.9961 35.5223 18.918 35.314 18.918H28.0952C27.4494 18.918 26.8921 19.1523 26.4233 19.6211C25.9546 20.0898 25.7202 20.6576 25.7202 21.3242V35.6992Z" fill="#6A11B0"/>
</g>
<defs>
<clipPath id="clip0_176_2008">
<rect width="32" height="32" fill="white" transform="matrix(1 0 0 -1 12.0952 44.5117)"/>
</clipPath>
</defs>
</svg>
