<svg width="57" height="57" viewBox="0 0 57 57" fill="none" xmlns="http://www.w3.org/2000/svg">
<rect x="0.964844" y="0.511719" width="56" height="56" rx="28" fill="#FCF1F5"/>
<g clip-path="url(#clip0_176_2020)">
<path d="M24.0273 17.5742C22.8607 17.5742 21.8607 17.9909 21.0273 18.8242C20.194 19.6576 19.7773 20.668 19.7773 21.8555C19.7773 23.0221 20.194 24.0221 21.0273 24.8555C21.8607 25.6888 22.8607 26.1055 24.0273 26.1055C25.2148 26.1055 26.2253 25.6888 27.0586 24.8555C27.8919 24.0221 28.3086 23.0221 28.3086 21.8555C28.3086 20.668 27.8919 19.6576 27.0586 18.8242C26.2253 17.9909 25.2148 17.5742 24.0273 17.5742ZM17.6523 21.8555C17.6523 20.9596 17.819 20.1263 18.1523 19.3555C18.4857 18.5846 18.9388 17.9076 19.5117 17.3242C20.0846 16.7409 20.7669 16.2826 21.5586 15.9492C22.3294 15.6159 23.1523 15.4492 24.0273 15.4492C24.9232 15.4492 25.7565 15.6159 26.5273 15.9492C27.2982 16.2826 27.9753 16.7409 28.5586 17.3242C29.1419 17.9076 29.6003 18.5846 29.9336 19.3555C30.2669 20.1263 30.4336 20.9596 30.4336 21.8555C30.4336 22.7305 30.2669 23.5534 29.9336 24.3242C29.6003 25.1159 29.1419 25.7982 28.5586 26.3711C27.9753 26.944 27.2982 27.3971 26.5273 27.7305C25.7565 28.0638 24.9232 28.2305 24.0273 28.2305C23.1523 28.2305 22.3294 28.0638 21.5586 27.7305C20.7669 27.3971 20.0846 26.944 19.5117 26.3711C18.9388 25.7982 18.4857 25.1159 18.1523 24.3242C17.819 23.5534 17.6523 22.7305 17.6523 21.8555ZM31.0586 16.5117C31.1628 16.2201 31.3503 16.0169 31.6211 15.9023C31.8919 15.7878 32.1628 15.793 32.4336 15.918C33.6003 16.3971 34.5586 17.168 35.3086 18.2305C36.0586 19.293 36.4336 20.5013 36.4336 21.8555C36.4336 23.1888 36.0586 24.3919 35.3086 25.4648C34.5586 26.5378 33.6003 27.3138 32.4336 27.793C32.1628 27.8971 31.8919 27.8919 31.6211 27.7773C31.3503 27.6628 31.1628 27.4701 31.0586 27.1992C30.9336 26.9284 30.9284 26.6576 31.043 26.3867C31.1576 26.1159 31.3607 25.918 31.6523 25.793C32.4232 25.4805 33.0586 24.9701 33.5586 24.2617C34.0586 23.5534 34.3086 22.7513 34.3086 21.8555C34.3086 20.9596 34.0586 20.1523 33.5586 19.4336C33.0586 18.7148 32.4232 18.1992 31.6523 17.8867C31.3607 17.7826 31.1576 17.5951 31.043 17.3242C30.9284 17.0534 30.9336 16.7826 31.0586 16.5117ZM21.9961 31.4492H26.0898C26.694 31.4492 27.2357 31.4492 27.7148 31.4492C28.194 31.4492 28.6315 31.4701 29.0273 31.5117C29.4232 31.5326 29.7982 31.5742 30.1523 31.6367C30.5065 31.6992 30.8398 31.793 31.1523 31.918C31.944 32.2513 32.6367 32.7201 33.2305 33.3242C33.8242 33.9284 34.2878 34.6159 34.6211 35.3867C34.7461 35.7201 34.8398 36.0586 34.9023 36.4023C34.9648 36.7461 35.0169 37.1159 35.0586 37.5117C35.0794 37.9076 35.0898 38.3503 35.0898 38.8398C35.0898 39.3294 35.0898 39.8763 35.0898 40.4805V40.5117C35.0898 40.8034 34.9857 41.0534 34.7773 41.2617C34.569 41.4701 34.319 41.5742 34.0273 41.5742C33.7357 41.5742 33.4857 41.4701 33.2773 41.2617C33.069 41.0534 32.9648 40.8034 32.9648 40.5117C32.9648 39.8867 32.9648 39.3451 32.9648 38.8867C32.9648 38.4284 32.9544 38.0221 32.9336 37.668C32.9128 37.3138 32.8763 37.0273 32.8242 36.8086C32.7721 36.5898 32.7148 36.3867 32.6523 36.1992C32.4232 35.6784 32.1107 35.2201 31.7148 34.8242C31.319 34.4284 30.8607 34.1263 30.3398 33.918C30.1732 33.8346 29.9753 33.7721 29.7461 33.7305C29.5169 33.6888 29.2253 33.6576 28.8711 33.6367C28.5378 33.6159 28.1419 33.6003 27.6836 33.5898C27.2253 33.5794 26.6732 33.5742 26.0273 33.5742H22.0273C21.4023 33.5742 20.8607 33.5794 20.4023 33.5898C19.944 33.6003 19.5378 33.6159 19.1836 33.6367C18.8503 33.6576 18.569 33.6888 18.3398 33.7305C18.1107 33.7721 17.9128 33.8346 17.7461 33.918C17.2253 34.1263 16.7617 34.4284 16.3555 34.8242C15.9492 35.2201 15.6419 35.6784 15.4336 36.1992C15.3503 36.3867 15.2878 36.5898 15.2461 36.8086C15.2044 37.0273 15.1732 37.3138 15.1523 37.668C15.1315 38.0221 15.1159 38.4284 15.1055 38.8867C15.0951 39.3451 15.0898 39.8867 15.0898 40.5117C15.0898 40.8034 14.9857 41.0534 14.7773 41.2617C14.569 41.4701 14.319 41.5742 14.0273 41.5742C13.7357 41.5742 13.4857 41.4701 13.2773 41.2617C13.069 41.0534 12.9648 40.8034 12.9648 40.5117V40.4805C12.9648 39.8763 12.9701 39.3294 12.9805 38.8398C12.9909 38.3503 13.0065 37.9076 13.0273 37.5117C13.0482 37.1159 13.0898 36.7461 13.1523 36.4023C13.2148 36.0586 13.319 35.7201 13.4648 35.3867C13.7773 34.6159 14.2357 33.9284 14.8398 33.3242C15.444 32.7201 16.1419 32.2513 16.9336 31.918C17.2461 31.793 17.5742 31.6992 17.918 31.6367C18.2617 31.5742 18.6419 31.5326 19.0586 31.5117C19.4336 31.4701 19.8659 31.4492 20.3555 31.4492C20.8451 31.4492 21.3919 31.4492 21.9961 31.4492ZM35.6836 32.418C35.7461 32.1263 35.9023 31.9076 36.1523 31.7617C36.4023 31.6159 36.6732 31.5742 36.9648 31.6367C38.3398 31.9909 39.4857 32.7409 40.4023 33.8867C41.319 35.0326 41.7773 36.3555 41.7773 37.8555V40.5117C41.7773 40.8034 41.6732 41.0534 41.4648 41.2617C41.2565 41.4701 41.0065 41.5742 40.7148 41.5742C40.4232 41.5742 40.1732 41.4701 39.9648 41.2617C39.7565 41.0534 39.6523 40.8034 39.6523 40.5117V37.8555C39.6523 36.8555 39.3451 35.9753 38.7305 35.2148C38.1159 34.4544 37.3503 33.9492 36.4336 33.6992C36.1419 33.6367 35.9232 33.4805 35.7773 33.2305C35.6315 32.9805 35.6003 32.7096 35.6836 32.418Z" fill="#6A11B0"/>
</g>
<defs>
<clipPath id="clip0_176_2020">
<rect width="32" height="32" fill="white" transform="matrix(1 0 0 -1 12.9648 44.5117)"/>
</clipPath>
</defs>
</svg>
