<svg width="18" height="18" viewBox="0 0 18 18" fill="none" xmlns="http://www.w3.org/2000/svg">
<path d="M5.51367 0.879297C5.6543 0.910547 5.79492 0.957422 5.93555 1.01992C6.07617 1.08242 6.20117 1.16836 6.31055 1.27773C6.43555 1.40273 6.5293 1.54336 6.5918 1.69961C6.6543 1.85586 6.68555 2.02773 6.68555 2.21523C6.70117 2.59023 6.72852 2.95742 6.76758 3.3168C6.80664 3.67617 6.86523 4.03555 6.94336 4.39492C6.99023 4.55117 7.0332 4.70352 7.07227 4.85195C7.11133 5.00039 7.14648 5.15273 7.17773 5.30898C7.24023 5.52773 7.24414 5.73867 7.18945 5.9418C7.13477 6.14492 7.03711 6.34023 6.89648 6.52773C6.66211 6.82461 6.43164 7.1293 6.20508 7.4418C5.97852 7.7543 5.74805 8.05898 5.51367 8.35586C5.49805 8.37148 5.49023 8.39883 5.49023 8.43789C5.49023 8.47695 5.49805 8.5043 5.51367 8.51992C5.91992 9.30117 6.4043 10.0199 6.9668 10.6762C7.5293 11.3324 8.18555 11.9105 8.93555 12.4105C9.12305 12.5199 9.30664 12.6293 9.48633 12.7387C9.66602 12.848 9.84961 12.9574 10.0371 13.0668C10.084 13.098 10.123 13.1098 10.1543 13.102C10.1855 13.0941 10.2168 13.0746 10.248 13.0434C10.5605 12.809 10.873 12.5707 11.1855 12.3285C11.498 12.0863 11.8105 11.848 12.123 11.6137C12.2949 11.4887 12.4746 11.4105 12.6621 11.3793C12.8496 11.348 13.0449 11.3559 13.248 11.4027C13.498 11.4496 13.7402 11.5082 13.9746 11.5785C14.209 11.6488 14.4512 11.6996 14.7012 11.7309C14.9355 11.7777 15.1738 11.8129 15.416 11.8363C15.6582 11.8598 15.8965 11.8715 16.1309 11.8715C16.5215 11.8715 16.8574 11.9652 17.1387 12.1527C17.4199 12.3402 17.6074 12.6449 17.7012 13.0668V16.4887C17.7012 16.4887 17.7012 16.4926 17.7012 16.5004C17.7012 16.5082 17.6934 16.5199 17.6777 16.5355C17.6309 16.8637 17.4785 17.1371 17.2207 17.3559C16.9629 17.5746 16.6465 17.6762 16.2715 17.6605C15.7246 17.6605 15.1816 17.6332 14.6426 17.5785C14.1035 17.5238 13.5684 17.434 13.0371 17.309C12.084 17.0902 11.1621 16.7895 10.2715 16.4066C9.38086 16.0238 8.5293 15.559 7.7168 15.0121C6.70117 14.3246 5.79102 13.5434 4.98633 12.6684C4.18164 11.7934 3.48242 10.8246 2.88867 9.76211C2.56055 9.18398 2.27148 8.59023 2.02148 7.98086C1.78711 7.38711 1.58789 6.77383 1.42383 6.14102C1.25977 5.5082 1.13086 4.87148 1.03711 4.23086C0.958984 3.57461 0.919922 2.91055 0.919922 2.23867C0.919922 2.08242 0.943359 1.93008 0.990234 1.78164C1.03711 1.6332 1.11523 1.48867 1.22461 1.34805C1.33398 1.22305 1.46289 1.12148 1.61133 1.04336C1.75977 0.965235 1.91992 0.910547 2.0918 0.879297H5.51367Z" fill="#EE2C3C"/>
</svg>
