<svg width="60" height="60" viewBox="0 0 60 60" fill="none" xmlns="http://www.w3.org/2000/svg">
<rect width="60" height="60" rx="30" fill="#FCF1F5"/>
<path d="M32.3438 26.4062C32.5521 26.2188 32.6615 25.9844 32.6719 25.7031C32.6823 25.4219 32.5938 25.1875 32.4062 25C32.2188 24.7917 31.9844 24.6823 31.7031 24.6719C31.4219 24.6615 31.1875 24.75 31 24.9375L23.6875 31.625L21.0312 28.9688C20.8438 28.7604 20.6094 28.6562 20.3281 28.6562C20.0469 28.6562 19.8125 28.7604 19.625 28.9688C19.4375 29.1562 19.3438 29.3906 19.3438 29.6719C19.3438 29.9531 19.4375 30.1875 19.625 30.375L22.9688 33.7188C23.1562 33.9062 23.3802 34 23.6406 34C23.901 34 24.1354 33.9167 24.3438 33.75L32.3438 26.4062ZM37 20.6562C36.1042 20.6562 35.2188 20.5833 34.3438 20.4375C33.4688 20.2708 32.599 20.0312 31.7344 19.7188C30.8698 19.4062 30.0104 19.0104 29.1562 18.5312C28.3021 18.0521 27.4479 17.5 26.5938 16.875C26.4271 16.7292 26.2292 16.6562 26 16.6562C25.7708 16.6562 25.5729 16.7292 25.4062 16.875C24.5521 17.5 23.6979 18.0521 22.8438 18.5312C21.9896 19.0104 21.1302 19.4062 20.2656 19.7188C19.401 20.0312 18.5312 20.2708 17.6562 20.4375C16.7812 20.5833 15.8958 20.6562 15 20.6562C14.7292 20.6562 14.4948 20.7552 14.2969 20.9531C14.099 21.151 14 21.3854 14 21.6562V28.6562C14 30.3229 14.25 31.8854 14.75 33.3438C15.2292 34.7812 15.9583 36.1094 16.9375 37.3281C17.9167 38.5469 19.125 39.6562 20.5625 40.6562C22.0208 41.6354 23.7083 42.5 25.625 43.25C25.75 43.3125 25.875 43.3438 26 43.3438C26.125 43.3438 26.25 43.3125 26.375 43.25C28.2917 42.5 29.9792 41.6354 31.4375 40.6562C32.875 39.6562 34.0833 38.5469 35.0625 37.3281C36.0417 36.1094 36.7708 34.7812 37.25 33.3438C37.75 31.8854 38 30.3229 38 28.6562V21.6562C38 21.3854 37.901 21.151 37.7031 20.9531C37.5052 20.7552 37.2708 20.6562 37 20.6562ZM16 22.625C16.8542 22.5833 17.7083 22.4688 18.5625 22.2812C19.4167 22.1146 20.2604 21.875 21.0938 21.5625C21.9271 21.25 22.75 20.8646 23.5625 20.4062C24.375 19.9688 25.1875 19.4688 26 18.9062C26.8125 19.4688 27.625 19.9688 28.4375 20.4062C29.25 20.8646 30.0729 21.25 30.9062 21.5625C31.7396 21.875 32.5833 22.1146 33.4375 22.2812C34.2917 22.4688 35.1458 22.5833 36 22.625V28.6562C36 30.0729 35.7917 31.4062 35.375 32.6562C34.9792 33.8854 34.3646 35.0208 33.5312 36.0625C32.6979 37.1042 31.6562 38.0625 30.4062 38.9375C29.1562 39.7917 27.6875 40.5625 26 41.25C24.3125 40.5625 22.8438 39.7917 21.5938 38.9375C20.3438 38.0625 19.3021 37.1042 18.4688 36.0625C17.6354 35.0208 17.0208 33.8854 16.625 32.6562C16.2083 31.4062 16 30.0729 16 28.6562V22.625Z" fill="#6A11B0"/>
</svg>
