<svg width="20" height="21" viewBox="0 0 20 21" fill="none" xmlns="http://www.w3.org/2000/svg">
<path d="M7.38281 2.23828C7.5 1.96484 7.68555 1.74674 7.93945 1.58398C8.19336 1.42122 8.47005 1.33984 8.76953 1.33984C9.5638 1.33984 10.2441 1.61979 10.8105 2.17969C11.377 2.73958 11.6602 3.42318 11.6602 4.23047V7.16016H14.5703C15.599 7.16016 16.4453 7.54753 17.1094 8.32227C17.7734 9.097 18.0273 9.99219 17.8711 11.0078L16.9727 16.8477C16.8555 17.6549 16.4844 18.3255 15.8594 18.8594C15.2344 19.3932 14.5117 19.6602 13.6914 19.6602H2.5C1.8099 19.6602 1.2207 19.416 0.732422 18.9277C0.244141 18.4395 0 17.8503 0 17.1602V11.3398C0 10.6497 0.244141 10.0605 0.732422 9.57227C1.2207 9.08398 1.8099 8.83984 2.5 8.83984H4.45312L7.38281 2.23828ZM5.82031 18H13.6914C14.0951 18 14.4531 17.8665 14.7656 17.5996C15.0781 17.3327 15.2669 16.9974 15.332 16.5938L16.2305 10.7539C16.3086 10.2461 16.1816 9.80013 15.8496 9.41602C15.5176 9.0319 15.0911 8.83984 14.5703 8.83984H11.6602C11.2044 8.83984 10.8138 8.67708 10.4883 8.35156C10.1628 8.02604 10 7.62891 10 7.16016V4.23047C10 3.90495 9.88932 3.625 9.66797 3.39062C9.44661 3.15625 9.17969 3.02604 8.86719 3L5.97656 9.50391C5.95052 9.55599 5.92773 9.60482 5.9082 9.65039C5.88867 9.69596 5.85938 9.73828 5.82031 9.77734V18ZM4.16016 10.5V18H2.5C2.26562 18 2.06706 17.9186 1.9043 17.7559C1.74154 17.5931 1.66016 17.3945 1.66016 17.1602V11.3398C1.66016 11.1055 1.74154 10.9069 1.9043 10.7441C2.06706 10.5814 2.26562 10.5 2.5 10.5H4.16016Z" fill="#0A9044"/>
</svg>
