<svg width="266" height="238" viewBox="0 0 266 238" fill="none" xmlns="http://www.w3.org/2000/svg">
<g clip-path="url(#clip0_176_227)">
<g clip-path="url(#clip1_176_227)">
<mask id="mask0_176_227" style="mask-type:luminance" maskUnits="userSpaceOnUse" x="0" y="0" width="266" height="238">
<path d="M266 0.400696H0V237.509H266V0.400696Z" fill="white"/>
</mask>
<g mask="url(#mask0_176_227)">
<path d="M235.156 119.033C235.156 182.221 184.609 233.446 122.256 233.446C59.9027 233.446 9.35547 182.221 9.35547 119.033C9.35547 55.8438 59.9027 4.6192 122.256 4.6192C184.609 4.6192 235.156 55.8438 235.156 119.033Z" fill="url(#paint0_linear_176_227)" fill-opacity="0.32"/>
<path d="M72.7908 186.842C80.6882 195.023 80.5918 209.617 72.5754 219.438C64.559 229.259 51.6583 230.588 43.7609 222.408C35.8635 214.227 35.96 199.633 43.9763 189.812C51.9927 179.991 64.8934 178.661 72.7908 186.842Z" fill="#280154"/>
<path d="M70.8815 184.398C78.7789 192.579 78.6825 207.173 70.6661 216.994C62.6498 226.816 49.7492 228.145 41.8518 219.963C33.9543 211.783 34.0508 197.189 42.0671 187.368C50.0835 177.547 62.9842 176.217 70.8815 184.398Z" fill="#C01A28"/>
<path d="M64.9377 181.373C73.0926 188.179 74.0849 202.319 67.1539 212.955C60.2229 223.59 47.9934 226.694 39.8384 219.889C31.6835 213.082 30.6913 198.942 37.6223 188.306C44.5532 177.671 56.7827 174.567 64.9377 181.373Z" fill="#EE2C3C"/>
<path fill-rule="evenodd" clip-rule="evenodd" d="M53.1032 194.718L48.9431 193.45L49.3867 191.611L53.5467 192.879C55.2089 193.386 56.1164 195.621 55.5734 197.871C55.0306 200.122 53.243 201.536 51.5808 201.028L49.0599 200.26L52.6504 209.104L51.3766 210.111L47.3343 200.155C46.9249 199.147 47.6948 197.87 48.5544 198.132L52.0243 199.19C52.9365 199.468 53.9175 198.692 54.2155 197.458C54.5135 196.223 54.0155 194.996 53.1032 194.718Z" fill="#FF9292"/>
<path fill-rule="evenodd" clip-rule="evenodd" d="M57.617 196.093L48.648 193.359L49.0916 191.521L58.0606 194.255L57.617 196.093ZM56.8269 199.369L47.8579 196.635L48.3013 194.797L57.2704 197.531L56.8269 199.369Z" fill="#FF9292"/>
<path fill-rule="evenodd" clip-rule="evenodd" d="M63.2913 209.732C68.7326 201.382 67.6435 190.88 61.878 186.068C56.1124 181.256 46.9246 183.181 41.4834 191.53C36.042 199.88 37.1312 210.382 42.8967 215.194C48.6622 220.007 57.85 218.081 63.2913 209.732ZM64.9329 211.102C70.8217 202.066 69.9787 190.052 63.0499 184.27C56.1213 178.486 45.7305 181.124 39.8418 190.16C33.9529 199.196 34.7959 211.21 41.7247 216.993C48.6534 222.776 59.0442 220.139 64.9329 211.102Z" fill="#FF9292"/>
<path d="M85.9024 216.622C90.2076 224.105 100.735 226.963 109.416 223.007C118.097 219.051 121.644 209.779 117.339 202.296C113.034 194.814 102.506 191.956 93.8256 195.912C85.1446 199.867 81.5973 209.14 85.9024 216.622Z" fill="#280154"/>
<path d="M85.0006 215.129C89.3057 222.611 99.8334 225.47 108.514 221.513C117.195 217.557 120.743 208.285 116.437 200.802C112.132 193.32 101.605 190.462 92.9238 194.418C84.2427 198.373 80.6954 207.647 85.0006 215.129Z" fill="#AB0F1C"/>
<path d="M84.0166 210.125C87.2802 217.522 97.2619 221.095 106.311 218.105C115.361 215.116 120.051 206.695 116.788 199.298C113.524 191.902 103.543 188.329 94.4933 191.319C85.4437 194.309 80.7532 202.729 84.0166 210.125Z" fill="#DF2635"/>
<path fill-rule="evenodd" clip-rule="evenodd" d="M101.131 201.395L97.6569 200.674L98.0272 199.629L101.501 200.349C102.89 200.638 103.647 201.908 103.194 203.188C102.741 204.467 101.248 205.271 99.8594 204.984L97.7544 204.546L100.753 209.574L99.689 210.147L96.3132 204.486C95.9713 203.913 96.6143 203.187 97.3322 203.337L100.23 203.937C100.992 204.096 101.811 203.655 102.06 202.952C102.309 202.25 101.893 201.552 101.131 201.395Z" fill="#FE7878"/>
<path fill-rule="evenodd" clip-rule="evenodd" d="M104.901 202.176L97.4104 200.622L97.7807 199.577L105.271 201.131L104.901 202.176ZM104.241 204.039L96.7505 202.485L97.1209 201.439L104.612 202.993L104.241 204.039Z" fill="#FE7878"/>
<path fill-rule="evenodd" clip-rule="evenodd" d="M104.555 214.124C97.6383 216.41 90.6604 213.534 88.5028 208.644C86.3451 203.753 89.3333 197.586 96.2501 195.301C103.167 193.016 110.145 195.891 112.303 200.78C114.461 205.671 111.472 211.839 104.555 214.124ZM105.424 216.092C97.7344 218.632 89.2535 215.597 86.4808 209.312C83.708 203.028 87.6932 195.874 95.3821 193.333C103.07 190.793 111.552 193.829 114.324 200.113C117.097 206.397 113.112 213.551 105.424 216.092Z" fill="#FE7878"/>
<path d="M249.671 100.548C253.759 98.7325 258.571 100.61 259.914 104.924C265.048 121.414 264.514 139.276 258.251 155.534C251.002 174.349 236.676 189.475 218.423 197.585C200.169 205.695 179.485 206.124 160.919 198.779C144.875 192.432 131.549 180.727 123.061 165.727C120.84 161.804 122.738 156.945 126.826 155.129L249.671 100.548Z" fill="#6A11B0"/>
<path d="M16.7557 30.0043C12.6681 28.1881 7.8559 30.0657 6.51276 34.3791C1.37803 50.8691 1.91238 68.7314 8.176 84.9901C15.4242 103.805 29.7508 118.931 48.004 127.041C66.2572 135.15 86.9419 135.58 105.508 128.235C121.552 121.887 134.877 110.183 143.366 95.183C145.586 91.2593 143.689 86.4006 139.601 84.5844L16.7557 30.0043Z" fill="#6A11B0"/>
<path d="M170.343 175.866L175.465 141.306L180.708 147.522L177.264 199.45L132.803 170.982L111.582 175.866L102.182 173.257L89.7559 166.271L109.273 158.316L113.709 156.404C118.974 154.135 124.943 154.247 130.122 156.713L170.343 175.866Z" fill="#FF7581"/>
<path d="M174.738 141.932L179.98 148.148L179.483 162.821L170.78 159.4L174.738 141.932Z" fill="#280154"/>
<path d="M203.708 105.983L177.367 98.9821L174.227 114.051C173.045 119.72 177.542 124.96 183.246 124.563L195.905 123.679L203.708 105.983Z" fill="#F8ABB1"/>
<path d="M171.196 202.156L174.453 143.419C174.625 140.316 176.737 137.673 179.696 136.857L211.161 128.184L225.799 194.4C223.592 195.666 221.313 196.823 218.969 197.864C203.852 204.581 187.066 206.03 171.196 202.156Z" fill="#EE2C3C"/>
<path d="M229.134 195.108L210.516 145.104L218.176 196.38L202.259 206.35L229.134 195.108Z" fill="#280154"/>
<path d="M195.415 135.653L195.983 122.879L185.148 120.56L184.635 135.213C184.531 138.178 186.78 140.685 189.702 140.864C192.707 141.048 195.28 138.702 195.415 135.653Z" fill="#F8ABB1"/>
<path d="M250.215 194.143L217.45 131.046C215.997 128.247 212.564 127.195 209.825 128.709C207.477 130.007 206.365 132.809 207.173 135.393L225.181 193.04L181.899 207.266L159.64 203.565C157.855 203.268 156.024 203.571 154.424 204.427L144.371 209.806L139.774 214.65C137.462 217.087 139.273 220.224 141.764 217.971L147.924 212.397L156.89 208.429L150.019 215.975L147.924 224.171L158.26 223.514C159.444 223.514 160.542 222.885 161.152 221.856L162.841 219.007L171.02 214.645L177.721 216.567C179.262 217.009 180.874 217.132 182.461 216.928L242.464 209.224C249.533 208.316 253.532 200.534 250.215 194.143Z" fill="#F8ABB1"/>
<path fill-rule="evenodd" clip-rule="evenodd" d="M235.546 189.522C235.49 189.352 235.309 189.262 235.142 189.318L183.945 206.733C183.779 206.79 183.688 206.973 183.745 207.142C183.801 207.312 183.981 207.403 184.148 207.347L235.345 189.931C235.512 189.874 235.602 189.691 235.546 189.522Z" fill="black"/>
<path d="M207.2 135.452L212.266 151.545L225.46 145.381L217.532 130.926C216.023 128.174 212.607 127.171 209.88 128.678C207.501 129.994 206.376 132.835 207.2 135.452Z" fill="#EE2C3C"/>
<path d="M204.454 112.425L196.008 123.077L196.669 118.187C196.773 117.413 197.034 116.669 197.434 116L199.453 112.627C199.988 111.734 199.883 110.591 199.195 109.813C198.067 108.538 196.019 108.857 195.32 110.416L193.927 113.525L191.594 104.82L176.838 101.662L176.16 104.92L171.756 99.7504C170.737 98.5531 170.229 96.9938 170.346 95.4165C170.652 91.2439 175 88.6862 178.728 90.4845L181.199 91.6764L181.231 89.9635C181.274 87.5763 183.453 85.8202 185.759 86.3135C186.684 86.5117 187.502 87.0571 188.048 87.8404L192.392 94.0717L192.803 92.0975C193.274 89.8366 195.465 88.3908 197.696 88.8682C199.333 89.2185 200.599 90.5347 200.903 92.2015C202.053 98.5079 207.984 105.117 205.357 110.944C205.124 111.461 204.824 111.958 204.454 112.425Z" fill="#280154"/>
<path d="M191.201 122.346L185.127 124.316L184.768 132.231L191.201 122.346Z" fill="#FF7581"/>
<path fill-rule="evenodd" clip-rule="evenodd" d="M186.286 109.906C186.946 110.314 187.346 110.994 187.505 111.492C187.559 111.662 187.739 111.755 187.906 111.7C188.074 111.645 188.166 111.463 188.112 111.293C187.917 110.686 187.44 109.862 186.619 109.354C185.778 108.834 184.625 108.674 183.156 109.332C182.995 109.405 182.922 109.596 182.993 109.76C183.065 109.922 183.253 109.996 183.414 109.924C184.715 109.34 185.646 109.51 186.286 109.906Z" fill="black"/>
<path fill-rule="evenodd" clip-rule="evenodd" d="M177.654 107.145C178.302 107.365 178.78 107.87 179.015 108.267C179.105 108.421 179.302 108.47 179.452 108.379C179.604 108.287 179.652 108.088 179.562 107.935C179.269 107.439 178.683 106.811 177.856 106.532C177.007 106.245 175.956 106.343 174.798 107.224C174.656 107.332 174.628 107.534 174.734 107.676C174.839 107.82 175.039 107.849 175.18 107.741C176.192 106.972 177.028 106.933 177.654 107.145Z" fill="black"/>
<path fill-rule="evenodd" clip-rule="evenodd" d="M180.295 118.853C179.884 118.683 179.592 118.331 179.454 118.06C179.373 117.902 179.181 117.839 179.025 117.921C178.868 118.002 178.806 118.197 178.886 118.355C179.075 118.728 179.467 119.209 180.054 119.452C180.661 119.703 181.426 119.676 182.291 119.105C182.438 119.008 182.48 118.808 182.384 118.658C182.288 118.509 182.09 118.467 181.942 118.563C181.231 119.034 180.686 119.015 180.295 118.853Z" fill="black"/>
<path d="M183.649 111.55C183.467 112.29 183.64 112.971 184.035 113.071C184.429 113.17 184.897 112.651 185.078 111.91C185.26 111.169 185.087 110.489 184.692 110.389C184.298 110.29 183.831 110.81 183.649 111.55Z" fill="black"/>
<path d="M175.842 109.584C175.659 110.324 175.833 111.005 176.227 111.105C176.622 111.204 177.089 110.684 177.271 109.944C177.453 109.204 177.279 108.522 176.885 108.424C176.49 108.324 176.023 108.843 175.842 109.584Z" fill="black"/>
<path fill-rule="evenodd" clip-rule="evenodd" d="M180.51 110.906C180.391 110.775 180.189 110.768 180.06 110.889C179.501 111.416 178.76 112.272 178.391 113.123C178.207 113.548 178.097 114.013 178.193 114.449C178.294 114.908 178.605 115.273 179.132 115.507C179.294 115.579 179.482 115.504 179.553 115.341C179.624 115.177 179.55 114.987 179.389 114.915C179.013 114.748 178.864 114.531 178.816 114.31C178.763 114.065 178.816 113.751 178.975 113.383C179.293 112.649 179.962 111.864 180.494 111.363C180.623 111.241 180.631 111.037 180.51 110.906Z" fill="black"/>
<path fill-rule="evenodd" clip-rule="evenodd" d="M161.55 208.54C161.426 208.414 161.224 208.413 161.099 208.538L153.768 215.901L150.645 222.787C150.573 222.949 150.642 223.14 150.803 223.215C150.962 223.29 151.153 223.219 151.225 223.057L154.3 216.277L161.548 208.998C161.673 208.872 161.674 208.668 161.55 208.54ZM165.65 210.627C165.535 210.492 165.334 210.476 165.2 210.593L157.972 216.898L154.847 222.768C154.763 222.925 154.821 223.121 154.975 223.206C155.131 223.291 155.324 223.232 155.408 223.075L158.478 217.31L165.616 211.083C165.75 210.966 165.765 210.762 165.65 210.627Z" fill="black"/>
<path fill-rule="evenodd" clip-rule="evenodd" d="M197.114 111.666C197.223 111.422 197.509 111.317 197.748 111.432C197.985 111.547 198.084 111.836 197.969 112.075L197.806 112.413C197.73 112.573 197.795 112.767 197.954 112.845C198.112 112.924 198.303 112.857 198.38 112.696L198.543 112.358C198.813 111.796 198.579 111.118 198.023 110.849C197.463 110.577 196.79 110.826 196.533 111.398L195.244 114.272C195.171 114.434 195.242 114.625 195.402 114.699C195.563 114.774 195.752 114.701 195.825 114.539L197.114 111.666Z" fill="black"/>
<path d="M96.0837 105.323L90.9614 70.7622L85.7188 76.9783L87.1363 118.799L127.3 109.7L127.772 112.088C127.978 113.13 128.502 114.08 129.27 114.804L134.211 119.46C136.045 121.188 139.982 121.266 138.407 119.3L134.778 114.768C134.39 114.283 134.656 113.552 135.262 113.44L138.777 112.783C139.449 112.658 140.125 112.98 140.459 113.585L144.347 120.644C145.601 122.919 147.904 120.689 147.231 118.18L145.729 112.573L151.532 119.775C152.744 121.278 154.559 122.15 156.474 122.15H158.172L155.342 115.297C153.607 111.095 149.962 108.009 145.573 107.026L129.263 103.375L96.0837 105.323Z" fill="#F8ABB1"/>
<path fill-rule="evenodd" clip-rule="evenodd" d="M145.124 108.506C145.218 108.355 145.414 108.309 145.563 108.403L150.155 111.3L156.432 121.408C156.525 121.558 156.48 121.758 156.332 121.853C156.182 121.949 155.985 121.903 155.892 121.751L149.693 111.77L145.227 108.952C145.077 108.858 145.031 108.659 145.124 108.506ZM141.622 109.458C141.716 109.307 141.912 109.261 142.062 109.356L145.052 111.261C145.202 111.357 145.247 111.556 145.153 111.707C145.059 111.859 144.862 111.903 144.713 111.809L141.722 109.904C141.573 109.808 141.529 109.609 141.622 109.458Z" fill="black"/>
<path d="M74.9922 58.5291L82.7088 46.5095L90.9071 35.432C94.2195 30.9562 101.284 29.8201 101.84 35.3604L103.383 50.7488C104.019 57.0836 98.6805 62.3742 92.4453 61.5898L86.0909 60.7905L74.9922 58.5291Z" fill="#280154"/>
<path d="M91.689 71.3898L86.4463 77.6059L88.3463 119.033L126.514 110.433L130.241 102.588L97.1228 105.198L91.689 71.3898Z" fill="#D21323"/>
<path d="M70.4775 31.1042L97.5865 33.7228L95.4151 48.9659C94.5982 54.7004 88.596 58.0517 83.3762 55.6879L71.7904 50.4412L70.4775 31.1042Z" fill="#F8ABB1"/>
<path d="M95.2312 131.612L91.975 72.8755C91.8029 69.7726 89.6909 67.1294 86.7317 66.3137L58.2668 62.6821L40.6284 123.857C42.8361 125.123 45.1151 126.279 47.4588 127.321C62.5768 134.038 79.3627 135.486 95.2312 131.612Z" fill="#EE2C3C"/>
<path d="M40.9664 117.235L55.9101 74.5604L47.7783 127.399C44.4357 125.85 37.4356 122.391 36.1772 120.957L40.9664 117.235Z" fill="#280154"/>
<path d="M68.1821 61.8533L71.9888 49.6625L82.9497 51.266L78.4527 65.2019C77.5429 68.0214 74.5804 69.5911 71.7764 68.7394C68.8916 67.8631 67.2735 64.763 68.1821 61.8533Z" fill="#F8ABB1"/>
<path d="M15.3966 126.349L50.4772 65.6262C52.009 62.9746 55.3428 62.0363 58.0046 63.5077C60.4449 64.8566 61.5424 67.8132 60.5844 70.4577L41.1363 124.142L89.5147 155.927L104.234 157.561H105.354L113.379 159.641L126.76 172.223C127.646 173.055 127.237 174.552 126.055 174.805L125.782 174.863L113.379 167.307L118.66 175.671H101.806L86.4415 167.307L20.4933 141.212C14.647 138.899 12.2257 131.839 15.3966 126.349Z" fill="#F8ABB1"/>
<path d="M61.087 69.9685L43.7815 125.973L89.734 155.71L83.7571 166.822L29.5714 144.955L20.2488 141.096C13.1496 138.158 10.3888 129.437 14.4765 122.861L50.4536 64.9895C52.1156 62.3162 55.5418 61.4125 58.279 62.9255C60.7535 64.2933 61.9294 67.2426 61.087 69.9685Z" fill="#EE2C3C"/>
<path d="M76.6606 50.8312L81.6942 54.7995L79.3422 62.3556L76.6606 50.8312Z" fill="#FF7581"/>
<path fill-rule="evenodd" clip-rule="evenodd" d="M85.5026 40.8656C84.7441 41.0189 84.1389 41.5175 83.8196 41.9301C83.7109 42.0707 83.5103 42.0953 83.3717 41.9851C83.2331 41.8749 83.2088 41.6718 83.3175 41.5312C83.706 41.0291 84.4347 40.422 85.3778 40.2315C86.3436 40.0364 87.4815 40.289 88.6365 41.4198C88.7632 41.5439 88.7667 41.7486 88.6442 41.877C88.5218 42.0053 88.3199 42.0089 88.1931 41.8848C87.1698 40.8828 86.2385 40.717 85.5026 40.8656Z" fill="black"/>
<path fill-rule="evenodd" clip-rule="evenodd" d="M94.5437 41.2864C93.8608 41.2659 93.2409 41.5739 92.8847 41.8655C92.7477 41.9777 92.5469 41.9559 92.4361 41.8171C92.3254 41.6782 92.3467 41.4746 92.4838 41.3625C92.9272 40.9995 93.6915 40.614 94.5626 40.6402C95.4567 40.6671 96.4096 41.1264 97.1988 42.3573C97.2947 42.5071 97.2528 42.7073 97.105 42.8045C96.9573 42.9018 96.7597 42.8593 96.6637 42.7096C95.9743 41.634 95.2035 41.3064 94.5437 41.2864Z" fill="black"/>
<path fill-rule="evenodd" clip-rule="evenodd" d="M88.088 51.357C88.5323 51.3406 88.9259 51.1123 89.1464 50.906C89.2759 50.7849 89.4777 50.7931 89.5972 50.9243C89.7167 51.0555 89.7086 51.26 89.5792 51.3812C89.2761 51.6645 88.7436 51.9798 88.111 52.003C87.4555 52.0272 86.7465 51.7352 86.1285 50.8976C86.023 50.7546 86.0519 50.5521 86.1929 50.4451C86.3341 50.3382 86.534 50.3675 86.6395 50.5105C87.1479 51.1997 87.6666 51.3724 88.088 51.357Z" fill="black"/>
<path d="M87.6072 45.0605C87.4997 45.8156 87.086 46.3799 86.6835 46.321C86.2809 46.2622 86.0418 45.6023 86.1493 44.8472C86.2569 44.092 86.6704 43.5277 87.073 43.5866C87.4756 43.6455 87.7148 44.3053 87.6072 45.0605Z" fill="black"/>
<path d="M95.5706 46.226C95.463 46.9812 95.0495 47.5455 94.6469 47.4866C94.2443 47.4277 94.0051 46.7679 94.1127 46.0127C94.2203 45.2576 94.6338 44.6933 95.0364 44.7521C95.439 44.811 95.6782 45.4709 95.5706 46.226Z" fill="black"/>
<path fill-rule="evenodd" clip-rule="evenodd" d="M90.5842 43.8211C90.7412 43.7402 90.9333 43.8035 91.0131 43.9627C91.359 44.6522 91.764 45.7148 91.821 46.6425C91.8493 47.1055 91.7941 47.5797 91.5561 47.9561C91.3059 48.3516 90.8887 48.5857 90.3147 48.6216C90.1389 48.6326 89.9876 48.4971 89.9767 48.3189C89.9658 48.1406 90.0996 47.9873 90.2755 47.9762C90.6849 47.9507 90.8979 47.7986 91.0189 47.6072C91.1521 47.3967 91.2088 47.0834 91.1841 46.6826C91.135 45.8824 90.7734 44.9116 90.4444 44.2557C90.3645 44.0965 90.4271 43.902 90.5842 43.8211Z" fill="black"/>
<path fill-rule="evenodd" clip-rule="evenodd" d="M74.7381 38.7407C74.7181 38.4733 74.4855 38.2745 74.2221 38.2998C73.9608 38.3249 73.7697 38.5608 73.7963 38.8254L73.8341 39.2C73.8519 39.3776 73.7243 39.5363 73.549 39.5544C73.3738 39.5725 73.2172 39.4432 73.1992 39.2655L73.1616 38.891C73.099 38.2694 73.548 37.7151 74.1619 37.6561C74.7809 37.5967 75.3275 38.0638 75.3743 38.6921L75.6085 41.8388C75.6217 42.0169 75.4901 42.1721 75.3144 42.1855C75.1388 42.1989 74.9856 42.0655 74.9723 41.8875L74.7381 38.7407Z" fill="black"/>
<path d="M101.076 163.312L112.304 158.506L121.612 163.267L109.204 165.905C106.428 166.494 103.534 166.091 101.018 164.763C100.424 164.449 100.458 163.576 101.076 163.312Z" fill="#FF7581"/>
<path fill-rule="evenodd" clip-rule="evenodd" d="M108.915 168.809C109.046 168.689 109.248 168.699 109.366 168.831L114.981 175.127C115.099 175.259 115.088 175.464 114.958 175.583C114.827 175.703 114.625 175.693 114.507 175.56L108.893 169.265C108.775 169.132 108.785 168.928 108.915 168.809Z" fill="black"/>
<path d="M111.513 178.174H103.365C102.222 178.174 101.404 177.053 101.739 175.944L101.808 175.716L100.582 176.294C99.6801 176.717 98.6703 176.846 97.6929 176.662L96.4471 176.428C95.0503 176.165 94.6639 174.323 95.8346 173.507L103.673 168.046C104.258 167.639 105.003 167.55 105.665 167.811L106.37 168.089C106.675 168.209 106.916 168.418 107.079 168.673C107.474 169.293 108.03 170.231 108.764 170.231C109.588 170.231 110.398 170.443 111.12 170.844L113.764 172.317C114.297 172.614 114.476 173.303 114.157 173.827L111.513 178.174Z" fill="#FF7581"/>
<path fill-rule="evenodd" clip-rule="evenodd" d="M106.129 171.301C106.254 171.428 106.254 171.632 106.129 171.758L102.545 175.391C102.421 175.516 102.219 175.516 102.095 175.391C101.97 175.264 101.97 175.059 102.095 174.934L105.678 171.301C105.803 171.176 106.004 171.176 106.129 171.301Z" fill="black"/>
<path fill-rule="evenodd" clip-rule="evenodd" d="M110.411 172.736C110.545 172.851 110.561 173.056 110.448 173.191L106.506 177.912C106.392 178.049 106.191 178.066 106.056 177.95C105.922 177.836 105.905 177.631 106.019 177.495L109.961 172.774C110.075 172.637 110.276 172.62 110.411 172.736Z" fill="black"/>
<path fill-rule="evenodd" clip-rule="evenodd" d="M113.718 167.913C113.867 167.817 114.064 167.862 114.159 168.013L118.656 175.17C118.75 175.32 118.707 175.52 118.558 175.616C118.41 175.712 118.212 175.668 118.118 175.517L113.621 168.359C113.526 168.209 113.57 168.01 113.718 167.913Z" fill="black"/>
<path fill-rule="evenodd" clip-rule="evenodd" d="M37.1003 121.346C37.197 121.197 37.3949 121.156 37.5421 121.253L88.9643 155.491C89.1115 155.589 89.1525 155.79 89.0558 155.939C88.959 156.087 88.7612 156.129 88.6139 156.032L37.1917 121.794C37.0445 121.696 37.0035 121.495 37.1003 121.346Z" fill="black"/>
<path d="M68.9175 60.2514H58.3369C54.3516 60.2514 51.6751 56.1087 53.2687 52.4071L61.1692 34.0555C61.8472 32.4808 62.9131 31.1092 64.2648 30.0723L74.8731 21.9347C77.3076 20.0673 80.4569 19.4441 83.4058 20.2464L91.7248 22.5097C96.1722 23.7197 99.038 28.0921 98.4142 32.7156L98.0417 35.4769C92.1388 39.3882 83.0187 37.3942 80.3227 35.4769L76.7753 40.366V38.9458C76.7753 37.9574 76.2503 37.0456 75.4013 36.5594L75.335 36.5213C74.2698 35.9111 72.9292 36.1329 72.1107 37.0545C71.4113 37.842 71.2431 38.9764 71.6832 39.9373L74.447 45.9726V54.6478C74.447 57.7426 71.9713 60.2514 68.9175 60.2514Z" fill="#280154"/>
<path fill-rule="evenodd" clip-rule="evenodd" d="M185.112 46.2538C190.376 42.1196 190.041 31.5637 184.193 22.1115C178.117 12.2909 168.391 7.38045 162.468 11.1438C161.101 12.0118 160.057 13.2655 159.333 14.8013L134.526 41.0839C131.116 44.6963 130.733 50.2589 133.615 54.3156C136.057 57.7523 140.306 59.331 144.345 58.3331L154.223 74.2987C155.52 76.3951 158.249 77.0291 160.317 75.7146C162.386 74.4003 163.012 71.6352 161.715 69.5388L153.237 55.8357L181.977 47.7452C182.235 47.6856 182.49 47.6141 182.74 47.5305L183.501 47.3164L183.489 47.2979C183.764 47.1656 184.033 47.0167 184.294 46.8509C184.581 46.6686 184.853 46.4692 185.112 46.2538ZM183.481 47.2832C183.499 47.2609 183.518 47.2384 183.537 47.2158C183.511 47.2273 183.486 47.2388 183.461 47.25L183.481 47.2832Z" fill="#280154"/>
<path d="M138.27 52.9567C136.973 50.8603 137.598 48.0952 139.666 46.7808C141.736 45.4664 144.464 46.1004 145.762 48.1968L157.886 67.7948C159.183 69.8913 158.557 72.6564 156.489 73.9708C154.42 75.2853 151.691 74.6513 150.394 72.5547L138.27 52.9567Z" fill="#E94E5C"/>
<path d="M141.579 49.871C141.006 48.9447 141.282 47.7228 142.197 47.142C143.111 46.5612 144.316 46.8414 144.89 47.7677L157.998 68.9546C158.57 69.8811 158.295 71.1029 157.38 71.6837C156.466 72.2645 155.26 71.9843 154.687 71.0579L141.579 49.871Z" fill="#CF2836"/>
<path d="M158.338 10.0558L130.697 39.3408C127.287 42.9531 126.904 48.5158 129.787 52.5724C132.292 56.0992 136.702 57.6693 140.834 56.5062L179.672 45.5732L169.005 27.8145L158.338 10.0558Z" fill="#EE2C3C"/>
<path d="M180.529 20.6569C186.605 30.4775 186.729 41.4894 180.806 45.2528C174.883 49.016 165.157 44.1057 159.081 34.285C153.005 24.4644 152.88 13.4525 158.803 9.68919C164.726 5.92588 174.453 10.8363 180.529 20.6569Z" fill="#C01A28"/>
<path fill-rule="evenodd" clip-rule="evenodd" d="M163.749 40.2191C161.591 38.1307 159.59 35.5095 157.941 32.4678C156.695 30.1687 155.756 27.8264 155.121 25.5388L162.837 24.0746C165.484 23.5723 168.163 24.7706 169.581 27.0907C171.173 29.6961 170.79 33.0689 168.654 35.2384L163.749 40.2191Z" fill="#8D0813"/>
<path fill-rule="evenodd" clip-rule="evenodd" d="M180.629 45.396C186.534 41.6447 186.409 30.6679 180.353 20.8786C174.297 11.0894 164.6 6.19472 158.696 9.94601C158.006 10.3851 157.397 10.9231 156.871 11.5465C162.821 8.72054 171.911 13.6049 177.688 22.9431C183.036 31.5866 183.758 41.1559 179.79 45.8598C180.077 45.7233 180.357 45.5688 180.629 45.396Z" fill="#EE2C3C"/>
<path fill-rule="evenodd" clip-rule="evenodd" d="M185.177 0.772299C185.943 1.37303 186.083 2.48974 185.49 3.26654L171.918 21.0528C171.326 21.8295 170.223 21.9723 169.457 21.3716C168.691 20.7708 168.549 19.6541 169.142 18.8773L182.715 1.09111C183.308 0.314307 184.409 0.171569 185.177 0.772299Z" fill="#8D0813"/>
<path fill-rule="evenodd" clip-rule="evenodd" d="M196.796 15.3047C197.204 16.1958 196.82 17.2527 195.941 17.6652L175.807 27.1109C174.927 27.5235 173.885 27.1355 173.478 26.2444C173.07 25.3532 173.454 24.2964 174.333 23.8838L194.467 14.4381C195.347 14.0256 196.389 14.4135 196.796 15.3047Z" fill="#8D0813"/>
<path fill-rule="evenodd" clip-rule="evenodd" d="M201.166 30.5517C201.275 31.5275 200.583 32.4077 199.619 32.5176L177.572 35.0351C176.61 35.1451 175.741 34.4432 175.632 33.4673C175.524 32.4915 176.216 31.6114 177.179 31.5014L199.227 28.9839C200.189 28.8739 201.058 29.5759 201.166 30.5517Z" fill="#8D0813"/>
</g>
</g>
</g>
<defs>
<linearGradient id="paint0_linear_176_227" x1="9.02544" y1="16.397" x2="251.148" y2="35.8449" gradientUnits="userSpaceOnUse">
<stop offset="0.119792" stop-color="#EE2C3C"/>
<stop offset="0.645833" stop-color="#C5135D"/>
<stop offset="1" stop-color="#6A11B0"/>
</linearGradient>
<clipPath id="clip0_176_227">
<rect width="266" height="237.91" fill="white"/>
</clipPath>
<clipPath id="clip1_176_227">
<rect width="266" height="237.109" fill="white" transform="translate(0 0.400696)"/>
</clipPath>
</defs>
</svg>
