<svg width="60" height="60" viewBox="0 0 60 60" fill="none" xmlns="http://www.w3.org/2000/svg">
<rect width="60" height="60" rx="30" fill="#FCF1F5"/>
<path d="M31.9688 18C33.0729 18 34.0156 18.3906 34.7969 19.1719C35.5781 19.9531 35.9688 20.8958 35.9688 22C35.9688 23.1042 35.5781 24.0469 34.7969 24.8281C34.0156 25.6094 33.0729 26 31.9688 26C31.4062 26 30.8802 25.8906 30.3906 25.6719C29.901 25.4531 29.4792 25.1562 29.125 24.7812L21.8438 28.9375C21.8854 29.1042 21.9167 29.276 21.9375 29.4531C21.9583 29.6302 21.9688 29.8125 21.9688 30C21.9688 30.1875 21.9583 30.3698 21.9375 30.5469C21.9167 30.724 21.8854 30.8958 21.8438 31.0625L29.125 35.2188C29.4792 34.8438 29.901 34.5469 30.3906 34.3281C30.8802 34.1094 31.4062 34 31.9688 34C33.0729 34 34.0156 34.3906 34.7969 35.1719C35.5781 35.9531 35.9688 36.8958 35.9688 38C35.9688 39.1042 35.5781 40.0469 34.7969 40.8281C34.0156 41.6094 33.0729 42 31.9688 42C30.8646 42 29.9219 41.6094 29.1406 40.8281C28.3594 40.0469 27.9688 39.1042 27.9688 38C27.9688 37.8125 27.9844 37.6302 28.0156 37.4531C28.0469 37.276 28.0833 37.1042 28.125 36.9375L20.8438 32.7812C20.4896 33.1562 20.0625 33.4531 19.5625 33.6719C19.0625 33.8906 18.5312 34 17.9688 34C16.8646 34 15.9271 33.6094 15.1562 32.8281C14.3854 32.0469 14 31.1042 14 30C14 28.8958 14.3854 27.9531 15.1562 27.1719C15.9271 26.3906 16.8646 26 17.9688 26C18.5312 26 19.0625 26.1094 19.5625 26.3281C20.0625 26.5469 20.4896 26.8438 20.8438 27.2188L28.125 23.0625C28.0833 22.8958 28.0469 22.724 28.0156 22.5469C27.9844 22.3698 27.9688 22.1875 27.9688 22C27.9688 20.8958 28.3594 19.9531 29.1406 19.1719C29.9219 18.3906 30.8646 18 31.9688 18Z" fill="#6A11B0"/>
</svg>
