<svg width="19" height="19" viewBox="0 0 19 19" fill="none" xmlns="http://www.w3.org/2000/svg">
<path d="M9.12891 1.83594C8.07422 1.83594 7.07812 2.03776 6.14062 2.44141C5.21615 2.84505 4.4056 3.39518 3.70898 4.0918C3.01237 4.78841 2.46224 5.59896 2.05859 6.52344C1.65495 7.46094 1.45312 8.45703 1.45312 9.51172C1.45312 10.5664 1.65495 11.5625 2.05859 12.5C2.46224 13.4245 3.01237 14.235 3.70898 14.9316C4.4056 15.6283 5.21615 16.1784 6.14062 16.582C7.07812 16.9857 8.07422 17.1875 9.12891 17.1875C10.1836 17.1875 11.1797 16.9857 12.1172 16.582C13.0417 16.1784 13.8522 15.6283 14.5488 14.9316C15.2454 14.235 15.7956 13.4245 16.1992 12.5C16.6029 11.5625 16.8047 10.5664 16.8047 9.51172C16.8047 8.45703 16.6029 7.46094 16.1992 6.52344C15.7956 5.59896 15.2454 4.78841 14.5488 4.0918C13.8522 3.39518 13.0417 2.84505 12.1172 2.44141C11.1797 2.03776 10.1836 1.83594 9.12891 1.83594ZM0.125 9.51172C0.125 8.27474 0.359375 7.10938 0.828125 6.01562C1.3099 4.92188 1.95768 3.9681 2.77148 3.1543C3.58529 2.34049 4.53906 1.69271 5.63281 1.21094C6.72656 0.742188 7.89193 0.507812 9.12891 0.507812C10.3659 0.507812 11.5312 0.742188 12.625 1.21094C13.7188 1.69271 14.6725 2.34049 15.4863 3.1543C16.3001 3.9681 16.9479 4.92188 17.4297 6.01562C17.8984 7.10938 18.1328 8.27474 18.1328 9.51172C18.1328 10.7487 17.8984 11.9141 17.4297 13.0078C16.9479 14.1016 16.3001 15.0553 15.4863 15.8691C14.6725 16.6829 13.7188 17.3307 12.625 17.8125C11.5312 18.2812 10.3659 18.5156 9.12891 18.5156C7.89193 18.5156 6.72656 18.2812 5.63281 17.8125C4.53906 17.3307 3.58529 16.6829 2.77148 15.8691C1.95768 15.0553 1.3099 14.1016 0.828125 13.0078C0.359375 11.9141 0.125 10.7487 0.125 9.51172ZM13.3477 6.54297C13.4779 6.67318 13.543 6.82943 13.543 7.01172C13.543 7.19401 13.4779 7.35026 13.3477 7.48047L8.34766 12.4805C8.21745 12.6107 8.0612 12.6758 7.87891 12.6758C7.69661 12.6758 7.54036 12.6107 7.41016 12.4805L4.91016 9.98047C4.77995 9.85026 4.71484 9.69401 4.71484 9.51172C4.71484 9.32943 4.77995 9.17318 4.91016 9.04297C5.04036 8.91276 5.19661 8.84766 5.37891 8.84766C5.5612 8.84766 5.71745 8.91276 5.84766 9.04297L7.87891 11.0742L12.4102 6.54297C12.5404 6.41276 12.6966 6.34766 12.8789 6.34766C13.0612 6.34766 13.2174 6.41276 13.3477 6.54297Z" fill="#C5135D"/>
</svg>
