<svg width="60" height="60" viewBox="0 0 60 60" fill="none" xmlns="http://www.w3.org/2000/svg">
<rect width="60" height="60" rx="30" fill="#FCF1F5"/>
<path d="M25.2188 28.4062C24.9896 28.4062 24.7969 28.4844 24.6406 28.6406C24.4844 28.7969 24.4062 28.9792 24.4062 29.1875V34C24.4062 34.2292 24.4844 34.4219 24.6406 34.5781C24.7969 34.7344 24.9896 34.8125 25.2188 34.8125C25.2188 34.8125 25.2292 34.8125 25.25 34.8125C25.2708 34.8125 25.2812 34.8021 25.2812 34.7812C25.3438 34.4896 25.4375 34.2135 25.5625 33.9531C25.6875 33.6927 25.8333 33.4375 26 33.1875V29.1875C26 28.9792 25.9219 28.7969 25.7656 28.6406C25.6094 28.4844 25.4271 28.4062 25.2188 28.4062ZM17.2188 38H25.2188V39.5938H17.2188C16.3229 39.5938 15.5625 39.2812 14.9375 38.6562C14.3125 38.0312 14 37.2812 14 36.4062V20.4062C14 19.5104 14.3125 18.75 14.9375 18.125C15.5625 17.5 16.3229 17.1875 17.2188 17.1875H33.2188C34.0938 17.1875 34.8438 17.5 35.4688 18.125C36.0938 18.75 36.4062 19.5104 36.4062 20.4062V28.4688C36.2812 28.4479 36.151 28.4323 36.0156 28.4219C35.8802 28.4115 35.75 28.4062 35.625 28.4062H34.8125V20.4062C34.8125 19.9688 34.6562 19.5938 34.3438 19.2812C34.0312 18.9688 33.6562 18.8125 33.2188 18.8125H17.2188C16.7812 18.8125 16.4062 18.9688 16.0938 19.2812C15.7812 19.5938 15.625 19.9688 15.625 20.4062V36.4062C15.625 36.8438 15.7812 37.2188 16.0938 37.5312C16.4062 37.8438 16.7812 38 17.2188 38ZM31.625 22.8125V28.4688C31.3125 28.5312 31.026 28.625 30.7656 28.75C30.5052 28.875 30.25 29.0208 30 29.1875V22.8125C30 22.5833 30.0781 22.3906 30.2344 22.2344C30.3906 22.0781 30.5833 22 30.8125 22C31.0417 22 31.2344 22.0781 31.3906 22.2344C31.5469 22.3906 31.625 22.5833 31.625 22.8125ZM18.8125 26C18.8125 25.7708 18.8906 25.5781 19.0469 25.4219C19.2031 25.2656 19.3958 25.1875 19.625 25.1875C19.8333 25.1875 20.0156 25.2656 20.1719 25.4219C20.3281 25.5781 20.4062 25.7708 20.4062 26V34C20.4062 34.2292 20.3281 34.4219 20.1719 34.5781C20.0156 34.7344 19.8333 34.8125 19.625 34.8125C19.3958 34.8125 19.2031 34.7344 19.0469 34.5781C18.8906 34.4219 18.8125 34.2292 18.8125 34V26ZM30 33.1875V32.4062C30 31.7396 30.2344 31.1719 30.7031 30.7031C31.1719 30.2344 31.7396 30 32.4062 30H35.625C36.2708 30 36.8281 30.2344 37.2969 30.7031C37.7656 31.1719 38 31.7396 38 32.4062V33.1875H38.8125C39.4792 33.1875 40.0469 33.4219 40.5156 33.8906C40.9844 34.3594 41.2188 34.9271 41.2188 35.5938V38H38V37.1875C38 36.9792 37.9219 36.7969 37.7656 36.6406C37.6094 36.4844 37.4271 36.4062 37.2188 36.4062C36.9896 36.4062 36.7969 36.4844 36.6406 36.6406C36.4844 36.7969 36.4062 36.9792 36.4062 37.1875V38H31.625V37.1875C31.625 36.9792 31.5469 36.7969 31.3906 36.6406C31.2344 36.4844 31.0417 36.4062 30.8125 36.4062C30.5833 36.4062 30.3906 36.4844 30.2344 36.6406C30.0781 36.7969 30 36.9792 30 37.1875V38H26.8125V35.5938C26.8125 34.9271 27.0469 34.3594 27.5156 33.8906C27.9844 33.4219 28.5521 33.1875 29.2188 33.1875H30ZM31.625 32.4062V33.1875H36.4062V32.4062C36.4062 32.1771 36.3281 31.9844 36.1719 31.8281C36.0156 31.6719 35.8333 31.5938 35.625 31.5938H32.4062C32.1979 31.5938 32.0156 31.6719 31.8594 31.8281C31.7031 31.9844 31.625 32.1771 31.625 32.4062ZM38 39.5938H41.2188V42C41.2188 42.6667 40.9844 43.2344 40.5156 43.7031C40.0469 44.1719 39.4792 44.4062 38.8125 44.4062H29.2188C28.5521 44.4062 27.9844 44.1719 27.5156 43.7031C27.0469 43.2344 26.8125 42.6667 26.8125 42V39.5938H30V40.4062C30 40.6146 30.0781 40.7969 30.2344 40.9531C30.3906 41.1094 30.5833 41.1875 30.8125 41.1875C31.0417 41.1875 31.2344 41.1094 31.3906 40.9531C31.5469 40.7969 31.625 40.6146 31.625 40.4062V39.5938H36.4062V40.4062C36.4062 40.6146 36.4844 40.7969 36.6406 40.9531C36.7969 41.1094 36.9896 41.1875 37.2188 41.1875C37.4271 41.1875 37.6094 41.1094 37.7656 40.9531C37.9219 40.7969 38 40.6146 38 40.4062V39.5938Z" fill="#6A11B0"/>
</svg>
